<svg width="200" height="37" viewBox="0 0 200 37" fill="none" xmlns="http://www.w3.org/2000/svg">
<g clip-path="url(#clip0_1_437)">
<path d="M70.7461 32.5626C70.0619 32.5234 69.3758 32.5021 68.6928 32.441C65.3176 32.1401 62.1469 31.2495 59.4572 29.0959C56.9629 27.0992 55.5461 24.4672 55.0057 21.3472C54.582 18.8997 54.6549 16.4697 55.3578 14.0827C56.5863 9.91249 59.3521 7.17182 63.4018 5.66902C65.6053 4.8517 67.8964 4.49674 70.2424 4.4453C72.6284 4.39257 74.977 4.61506 77.2746 5.28576C79.5355 5.94617 81.5797 6.99884 83.2744 8.64504C85.1439 10.4604 86.282 12.6821 86.7689 15.2266C87.3835 18.4387 87.199 21.589 85.8538 24.6087C84.468 27.7191 82.0724 29.791 78.9564 31.0861C77.0483 31.879 75.0473 32.2854 72.9928 32.4462C72.3524 32.4963 71.7101 32.524 71.0685 32.5626H70.7461ZM70.906 10.7176C70.2225 10.7767 69.5363 10.8192 68.856 10.9015C68.453 10.9504 68.0519 11.0398 67.6604 11.1484C65.3744 11.7812 63.621 13.0564 62.7176 15.3102C62.1301 16.7751 62.0411 18.3075 62.2559 19.8514C62.5783 22.1748 63.7113 23.9779 65.8232 25.1058C67.0543 25.7636 68.384 26.0652 69.7704 26.1597C71.4109 26.2716 73.034 26.2009 74.6094 25.6871C76.9038 24.9386 78.5489 23.5027 79.2814 21.162C79.7502 19.6637 79.7812 18.1242 79.4826 16.5957C79.0899 14.5842 78.0227 13.0242 76.2061 11.9908C74.5591 11.0533 72.769 10.7697 70.9066 10.7169L70.906 10.7176Z" fill="white"/>
<path d="M199.999 31.3434H198.199C198.199 31.1981 198.199 31.0727 198.199 30.9473C198.199 22.7317 198.199 14.5155 198.199 6.2999C198.199 5.87935 198.2 5.87099 198.625 5.87999C199.083 5.88964 199.541 5.91729 199.999 5.93658V31.3434Z" fill="white"/>
<path d="M119.073 23.2434C119.314 22.4389 119.539 21.6943 119.762 20.9496C121.263 15.9274 122.763 10.9058 124.263 5.88364C124.291 5.79168 124.323 5.70037 124.339 5.60584C124.379 5.35955 124.52 5.2811 124.766 5.28175C126.99 5.28882 129.214 5.2856 131.437 5.28625C131.511 5.28625 131.584 5.29461 131.715 5.30232C131.67 5.48302 131.642 5.64507 131.589 5.79811C130.124 10.0808 128.654 14.3622 127.187 18.6449C125.748 22.8466 124.308 27.0483 122.881 31.2545C122.773 31.5721 122.626 31.6795 122.287 31.6769C120.17 31.6609 118.054 31.6589 115.938 31.6782C115.593 31.6814 115.455 31.5741 115.355 31.2551C113.555 25.4876 111.744 19.7233 109.935 13.9584C109.894 13.8272 109.847 13.6973 109.771 13.4774C109.703 13.6793 109.661 13.8008 109.622 13.9243C107.797 19.6841 105.974 25.4445 104.15 31.205C104.052 31.514 103.838 31.6686 103.507 31.6686C101.412 31.6686 99.3173 31.6628 97.2222 31.675C96.9313 31.6769 96.8082 31.5721 96.7179 31.3091C93.7941 22.7855 90.8638 14.2645 87.9355 5.74345C87.8917 5.61549 87.8562 5.48495 87.7988 5.29782C87.9749 5.29782 88.0987 5.29782 88.2231 5.29782C90.4253 5.29782 92.6275 5.30682 94.8297 5.28882C95.1696 5.28625 95.2863 5.40971 95.3753 5.70937C97.0796 11.4389 98.793 17.1659 100.506 22.8929C100.536 22.9939 100.573 23.0929 100.632 23.2646C100.869 22.5302 101.084 21.8621 101.303 21.1946C102.994 16.0194 104.69 10.8454 106.371 5.66758C106.47 5.36341 106.615 5.27789 106.921 5.27982C108.844 5.29268 110.767 5.28625 112.69 5.28625C113.024 5.28625 113.241 5.44165 113.342 5.75246C115.218 11.4968 117.094 17.2405 118.969 22.9842C118.991 23.0517 119.022 23.1167 119.074 23.2434H119.073Z" fill="white"/>
<path d="M7.26969 31.6726C6.84279 31.6726 6.45845 31.6726 6.07476 31.6726C4.21627 31.6726 2.35779 31.6732 0.499949 31.6726C0.00147282 31.6726 0.000827965 31.6687 0.000827965 31.1774C0.000183105 22.7091 0.000183105 14.2415 0.000183105 5.77382C0.000183105 5.45915 0.159034 5.30161 0.476734 5.30118C8.81283 5.30118 17.1489 5.30118 25.485 5.30118C25.948 5.30118 25.95 5.30182 25.95 5.75774C25.9513 7.51069 25.9513 9.26364 25.95 11.0166C25.95 11.4166 25.9455 11.4185 25.4966 11.4185C21.5649 11.4185 17.6332 11.4185 13.7015 11.4185C11.7037 11.4185 9.70532 11.4236 7.70754 11.4127C7.41671 11.4114 7.31611 11.4879 7.31869 11.7895C7.33159 13.2422 7.32256 14.6942 7.32192 16.1468C7.32192 16.1886 7.33288 16.2298 7.34384 16.3089C7.50957 16.3179 7.67659 16.3346 7.84361 16.3346C12.6994 16.3359 17.5546 16.3359 22.4103 16.3359C22.8675 16.3359 22.8727 16.3359 22.8759 16.7867C22.8888 18.3358 22.8985 19.8855 22.9062 21.4346C22.9069 21.5941 22.8824 21.7536 22.8779 21.9137C22.865 22.4069 22.9256 22.3889 22.3723 22.3889C17.4952 22.3902 12.6182 22.3895 7.74108 22.3895C7.30838 22.3895 7.30773 22.3895 7.30773 22.8307C7.30773 25.5463 7.30773 28.2619 7.3058 30.9775C7.3058 31.1787 7.28516 31.3794 7.26904 31.6707L7.26969 31.6726Z" fill="white"/>
<path d="M53.5473 25.4279V25.8022C53.5473 27.6304 53.5422 29.4585 53.5531 31.2867C53.5551 31.5703 53.4912 31.6783 53.1811 31.6777C45.4569 31.67 37.7334 31.67 30.0093 31.6777C29.7185 31.6777 29.6488 31.58 29.6488 31.3079C29.6443 22.7876 29.6327 14.2665 29.623 5.74613C29.623 5.33972 29.6501 5.30307 30.0603 5.30435C32.2618 5.31014 34.4634 5.32236 36.6643 5.33458C36.7365 5.33458 36.8094 5.35387 36.9299 5.37123V6.27085C36.9299 12.5039 36.9299 18.737 36.9299 24.9701C36.9299 25.2757 37.0828 25.4288 37.3884 25.4292C42.5983 25.4292 47.8087 25.4292 53.0185 25.4292H53.5467L53.5473 25.4279Z" fill="white"/>
<path d="M133.416 5.20209C133.585 5.20209 133.755 5.20209 133.925 5.20209C136.062 5.20209 138.201 5.20981 140.338 5.19438C140.706 5.1918 140.961 5.31591 141.208 5.57377C142.326 6.74284 143.458 7.89775 144.585 9.05781C144.614 9.08739 144.648 9.11311 144.742 9.19542C144.996 8.92277 145.244 8.64819 145.5 8.38261C146.461 7.38846 147.42 6.3943 148.391 5.41044C148.493 5.30627 148.666 5.21367 148.807 5.21302C151.138 5.20338 153.469 5.20852 155.8 5.21238C155.862 5.21238 155.924 5.22653 156.092 5.24646C153.53 7.88232 151.021 10.4642 148.484 13.0756C150.999 15.6683 153.508 18.2534 156.083 20.9066C155.89 20.9304 155.785 20.9542 155.679 20.9542C153.423 20.9581 151.167 20.9555 148.911 20.9664C148.599 20.9677 148.422 20.7909 148.234 20.5967C147.13 19.4585 146.025 18.3222 144.919 17.1853C144.86 17.1242 144.796 17.0683 144.715 16.9917C144.612 17.0888 144.509 17.1776 144.414 17.2747C143.291 18.4238 142.173 19.5781 141.04 20.7182C140.919 20.8397 140.714 20.9446 140.547 20.9458C138.291 20.9606 136.034 20.9568 133.779 20.9555C133.676 20.9555 133.572 20.9439 133.436 20.8886C135.884 18.2393 138.418 15.687 140.932 13.0736C138.404 10.4706 135.894 7.8836 133.383 5.29726C133.394 5.26575 133.405 5.23424 133.416 5.20209Z" fill="white"/>
<path d="M193.729 31.4012C193.267 31.4012 192.869 31.362 192.483 31.4102C191.896 31.4835 191.583 31.2572 191.319 30.7286C190.361 28.8065 189.347 26.9115 188.359 25.0035C187.794 23.9097 187.799 23.9065 186.574 23.9065C181.482 23.9065 176.389 23.9084 171.296 23.9007C171.016 23.9007 170.861 23.9702 170.726 24.2332C169.563 26.4954 168.376 28.7467 167.21 31.0077C167.062 31.2945 166.882 31.4199 166.557 31.4064C166.058 31.3858 165.557 31.4006 164.988 31.4006C165.082 31.1839 165.134 31.0373 165.206 30.9009C166.408 28.6104 167.612 26.3218 168.816 24.0325C170.626 20.5884 172.438 17.1455 174.245 13.6987C175.57 11.1709 176.883 8.63731 178.216 6.11335C178.279 5.99438 178.473 5.88442 178.613 5.87542C179.073 5.8452 179.536 5.87349 179.998 5.85999C180.246 5.85291 180.388 5.94808 180.502 6.16736C181.843 8.72348 183.195 11.2732 184.538 13.828C186.459 17.4805 188.375 21.135 190.291 24.7894C191.403 26.9102 192.509 29.0342 193.617 31.1569C193.642 31.2032 193.661 31.252 193.73 31.4006L193.729 31.4012ZM179.311 7.75698C176.818 12.529 174.349 17.2554 171.862 22.0146H186.781C184.29 17.2599 181.817 12.5406 179.312 7.75698H179.311Z" fill="white"/>
<path d="M144.722 31.5171C141.101 31.5171 137.48 31.5171 133.86 31.5171C133.4 31.5171 133.399 31.5164 133.398 31.0592C133.398 29.5834 133.405 28.1077 133.393 26.6325C133.39 26.327 133.485 26.2267 133.796 26.2267C141.016 26.2299 148.236 26.2248 155.456 26.2209C155.531 26.2209 155.607 26.2306 155.681 26.2267C155.945 26.2119 156.033 26.3328 156.031 26.5933C156.022 27.9938 156.027 29.395 156.027 30.7956C156.027 31.2766 155.782 31.5171 155.294 31.5171C151.77 31.5171 148.246 31.5171 144.722 31.5171H144.722Z" fill="#FFAF00"/>
<path d="M161.652 30.2268C161.646 31.113 161.066 31.6795 160.171 31.6743C159.353 31.6698 158.723 31.0229 158.729 30.194C158.734 29.3832 159.371 28.744 160.17 28.7478C161.087 28.7523 161.659 29.3233 161.652 30.2262V30.2268Z" fill="white"/>
</g>
<defs>
<clipPath id="clip0_1_437">
<rect width="199.999" height="28.125" fill="white" transform="translate(0 4.4375)"/>
</clipPath>
</defs>
</svg>
