<svg width="24" height="24" viewBox="0 0 24 24" fill="none" xmlns="http://www.w3.org/2000/svg">
<path d="M12.0078 22.5121C9.25669 22.5121 6.50556 22.5121 3.75492 22.5121C3.40558 22.5121 3.4046 22.5116 3.40411 22.1641C3.40362 21.0429 3.40901 19.9216 3.3997 18.8007C3.39774 18.5686 3.46976 18.4924 3.70641 18.4924C9.19202 18.4949 14.6776 18.491 20.1632 18.488C20.2205 18.488 20.2779 18.4954 20.3342 18.4924C20.5351 18.4812 20.6017 18.573 20.6003 18.7709C20.5934 19.8351 20.5968 20.8997 20.5968 21.9637C20.5968 22.3294 20.4113 22.5121 20.0402 22.5121C17.3626 22.5121 14.685 22.5121 12.0073 22.5121H12.0078Z" fill="#FFAF00"/>
<rect x="6.20361" y="1.48804" width="1.7255" height="5.60786" transform="rotate(30 6.20361 1.48804)" fill="black"/>
<rect x="16.3904" y="8.86377" width="2.15687" height="3.01962" transform="rotate(30 16.3904 8.86377)" fill="black"/>
<rect x="19.0054" y="10.3735" width="0.862748" height="3.01962" transform="rotate(30 19.0054 10.3735)" fill="black"/>
<rect x="17.8269" y="10.6892" width="0.862748" height="1.29412" transform="rotate(30 17.8269 10.6892)" fill="black"/>
<rect x="7.2666" y="3.0979" width="10.7843" height="3.88237" transform="rotate(30 7.2666 3.0979)" fill="black"/>
<path d="M9.74292 10.1711L10.1165 9.95546L13.6253 15.9947L13.1939 15.9947L9.74292 10.1711Z" fill="black"/>
<rect x="9.74292" y="10.387" width="0.431374" height="5.60786" fill="black"/>
<path d="M9.74292 9.95557L10.1165 10.1713L6.7233 15.9948L6.29193 15.9948L9.74292 9.95557Z" fill="black"/>
<ellipse cx="9.95856" cy="10.1712" rx="1.07843" ry="1.07843" fill="black"/>
</svg>
