<svg width="257" height="257" viewBox="0 0 257 257" fill="none" xmlns="http://www.w3.org/2000/svg">
<path d="M225.938 101.888L211.958 97.5938C211.068 97.3205 210.105 97.412 209.282 97.8481C208.875 98.0639 208.514 98.358 208.22 98.7134C207.927 99.0687 207.706 99.4785 207.571 99.9193L206.16 104.511L194.233 100.868L195.895 95.4133C196.46 93.559 195.416 91.5975 193.562 91.0312L167.209 82.981L168.123 79.9834C168.687 78.1291 167.644 76.1676 165.789 75.6014L70.407 46.4613L70.6749 45.5822C71.2397 43.728 70.1958 41.7668 68.3415 41.2004L49.4084 35.4158C48.5173 35.1438 47.5547 35.2368 46.7322 35.6745C45.9098 36.1125 45.2952 36.8592 45.0234 37.7504L28.572 91.7307C28.0072 93.585 29.0512 95.5465 30.9054 96.1127L49.8401 101.897C50.1726 101.999 50.5183 102.051 50.8659 102.051C51.4415 102.051 52.0082 101.909 52.5164 101.639C52.9235 101.422 53.284 101.127 53.5772 100.771C53.8704 100.415 54.0905 100.004 54.2251 99.563L54.4916 98.6881L123.675 119.823C121.1 122.179 119.481 125.564 119.481 129.322C119.481 134.309 122.333 138.639 126.491 140.778L70.992 217.014C69.8505 218.582 70.1964 220.778 71.7644 221.92C72.3637 222.357 73.0864 222.592 73.8282 222.592C74.9128 222.592 75.9827 222.091 76.6701 221.148L128.845 149.476V219.08C128.845 221.02 130.417 222.592 132.357 222.592C134.296 222.592 135.867 221.02 135.867 219.08V149.476L188.042 221.148C188.73 222.091 189.799 222.592 190.885 222.592C191.626 222.592 192.349 222.357 192.948 221.92C194.516 220.778 194.862 218.582 193.72 217.014L138.222 140.778C142.379 138.639 145.231 134.309 145.231 129.322C145.231 128.303 145.109 127.288 144.869 126.297L149.868 127.825C150.201 127.926 150.546 127.978 150.894 127.978C151.47 127.978 152.037 127.836 152.545 127.566C153.367 127.128 153.982 126.381 154.254 125.49L155.166 122.498L181.514 130.546C181.846 130.648 182.192 130.7 182.54 130.7C183.116 130.7 183.683 130.558 184.191 130.288C185.013 129.85 185.627 129.103 185.9 128.212L187.56 122.763L199.44 126.393L197.887 131.447C197.752 131.888 197.704 132.351 197.748 132.81C197.792 133.269 197.926 133.715 198.142 134.123C198.358 134.53 198.652 134.891 199.007 135.185C199.363 135.479 199.772 135.699 200.213 135.835L214.193 140.128C214.527 140.232 214.874 140.284 215.224 140.284C216.726 140.284 218.116 139.313 218.58 137.802L228.263 106.276C228.832 104.421 227.791 102.457 225.938 101.888ZM48.531 94.1542L36.3132 90.4217L50.7173 43.1589L62.9336 46.8913L48.531 94.1542ZM132.357 135.173C129.129 135.173 126.504 132.549 126.504 129.322C126.504 126.095 129.129 123.47 132.357 123.47C135.583 123.47 138.208 126.095 138.208 129.322C138.208 132.549 135.583 135.173 132.357 135.173ZM58.5767 92.5929L70.3992 53.8017L160.382 81.2921L148.56 120.081L58.5767 92.5929ZM180.205 122.803L157.408 115.84L165.356 89.758L188.154 96.7222L185.461 105.556L181.866 117.354C181.864 117.358 181.864 117.362 181.863 117.366L180.205 122.803ZM192.185 107.586L203.917 111.169L201.339 119.63L189.607 116.045L192.185 107.586ZM212.897 132.383L205.632 130.152L213.253 105.338L220.519 107.57L212.897 132.383Z" fill="#E1E3E5"/>
</svg>
