<svg width="512" height="37" viewBox="0 0 512 37" fill="none" xmlns="http://www.w3.org/2000/svg">
<g clip-path="url(#clip0_19_920)">
<mask id="mask0_19_920" style="mask-type:luminance" maskUnits="userSpaceOnUse" x="0" y="4" width="200" height="29">
<path d="M199.999 4.00439H0V32.1294H199.999V4.00439Z" fill="white"/>
</mask>
<g mask="url(#mask0_19_920)">
<path d="M70.7461 32.1295C70.0619 32.0903 69.3758 32.069 68.6928 32.0079C65.3176 31.707 62.1469 30.8164 59.4572 28.6628C56.9629 26.6661 55.5461 24.0341 55.0057 20.9141C54.582 18.4666 54.6549 16.0366 55.3578 13.6496C56.5863 9.47938 59.3521 6.73871 63.4018 5.23591C65.6053 4.41859 67.8964 4.06363 70.2424 4.01219C72.6284 3.95946 74.977 4.18195 77.2746 4.85265C79.5355 5.51306 81.5797 6.56573 83.2744 8.21193C85.1439 10.0273 86.282 12.249 86.7689 14.7935C87.3835 18.0056 87.199 21.1559 85.8538 24.1756C84.468 27.286 82.0724 29.3579 78.9564 30.653C77.0483 31.4459 75.0473 31.8523 72.9928 32.0131C72.3524 32.0632 71.7101 32.0909 71.0685 32.1295H70.7461ZM70.906 10.2845C70.2225 10.3436 69.5363 10.3861 68.856 10.4684C68.453 10.5173 68.0519 10.6067 67.6604 10.7153C65.3744 11.3481 63.621 12.6233 62.7176 14.8771C62.1301 16.342 62.0411 17.8744 62.2559 19.4183C62.5783 21.7417 63.7113 23.5448 65.8232 24.6727C67.0543 25.3305 68.384 25.6321 69.7704 25.7266C71.4109 25.8385 73.034 25.7678 74.6094 25.254C76.9038 24.5055 78.5489 23.0696 79.2814 20.7289C79.7502 19.2306 79.7812 17.6911 79.4826 16.1626C79.0899 14.1511 78.0227 12.5911 76.2061 11.5577C74.5591 10.6202 72.7684 10.3373 70.906 10.2845Z" fill="black"/>
<path d="M199.999 30.9103H198.199C198.199 30.765 198.199 30.6396 198.199 30.5142C198.199 22.2986 198.199 14.0824 198.199 5.86679C198.199 5.44624 198.2 5.43788 198.625 5.44688C199.083 5.45653 199.541 5.48418 199.999 5.50347V30.9103Z" fill="black"/>
<path d="M119.073 22.8103C119.314 22.0058 119.539 21.2612 119.762 20.5165C121.263 15.4943 122.763 10.4727 124.263 5.45053C124.291 5.35857 124.323 5.26726 124.339 5.17273C124.379 4.92644 124.52 4.84799 124.766 4.84864C126.99 4.85571 129.214 4.85249 131.437 4.85314C131.511 4.85314 131.584 4.8615 131.715 4.86921C131.67 5.04991 131.642 5.21196 131.589 5.365C130.124 9.64769 128.654 13.9291 127.187 18.2118C125.748 22.4135 124.308 26.6152 122.881 30.8214C122.773 31.139 122.626 31.2464 122.287 31.2438C120.17 31.2278 118.054 31.2258 115.938 31.2451C115.593 31.2483 115.455 31.141 115.355 30.822C113.555 25.0545 111.744 19.2902 109.935 13.5253C109.894 13.3941 109.847 13.2642 109.771 13.0443C109.703 13.2462 109.661 13.3677 109.622 13.4912C107.797 19.251 105.974 25.0114 104.15 30.7719C104.052 31.0809 103.838 31.2355 103.507 31.2355C101.412 31.2355 99.3173 31.2297 97.2222 31.2419C96.9313 31.2438 96.8082 31.139 96.7179 30.876C93.7941 22.3524 90.8638 13.8314 87.9355 5.31034C87.8917 5.18238 87.8562 5.05184 87.7988 4.86471C87.9749 4.86471 88.0987 4.86471 88.2231 4.86471C90.4253 4.86471 92.6275 4.87371 94.8297 4.85571C95.1696 4.85314 95.2863 4.9766 95.3753 5.27626C97.0796 11.0058 98.793 16.7328 100.506 22.4598C100.536 22.5608 100.573 22.6598 100.632 22.8315C100.869 22.0971 101.084 21.429 101.303 20.7615C102.994 15.5863 104.69 10.4123 106.371 5.23447C106.47 4.9303 106.615 4.84478 106.921 4.84671C108.844 4.85957 110.767 4.85314 112.69 4.85314C113.024 4.85314 113.241 5.00854 113.342 5.31935C115.218 11.0637 117.094 16.8074 118.969 22.5511C118.991 22.6186 119.021 22.6836 119.073 22.8103Z" fill="black"/>
<path d="M7.26969 31.2395C6.84279 31.2395 6.45845 31.2395 6.07476 31.2395C4.21627 31.2395 2.35779 31.2401 0.499949 31.2395C0.00147283 31.2395 0.000827965 31.2356 0.000827965 30.7443C0.000183105 22.276 0.000183105 13.8084 0.000183105 5.34068C0.000183105 5.02601 0.159034 4.86847 0.476734 4.86804C8.81283 4.86804 17.1489 4.86804 25.485 4.86804C25.948 4.86804 25.95 4.86868 25.95 5.3246C25.9513 7.07755 25.9513 8.8305 25.95 10.5835C25.95 10.9835 25.9455 10.9854 25.4966 10.9854C21.5649 10.9854 17.6332 10.9854 13.7015 10.9854C11.7037 10.9854 9.70532 10.9905 7.70754 10.9796C7.41671 10.9783 7.31611 11.0548 7.31869 11.3564C7.33159 12.8091 7.32256 14.2611 7.32192 15.7137C7.32192 15.7555 7.33288 15.7967 7.34384 15.8758C7.50957 15.8848 7.67659 15.9015 7.84361 15.9015C12.6994 15.9028 17.5546 15.9028 22.4103 15.9028C22.8675 15.9028 22.8727 15.9028 22.8759 16.3536C22.8888 17.9027 22.8985 19.4524 22.9062 21.0015C22.9069 21.161 22.8824 21.3205 22.8779 21.4806C22.865 21.9738 22.9256 21.9558 22.3723 21.9558C17.4952 21.9571 12.6182 21.9564 7.74108 21.9564C7.30838 21.9564 7.30773 21.9564 7.30773 22.3976C7.30773 25.1132 7.30773 27.8288 7.3058 30.5444C7.3058 30.7456 7.28516 30.9463 7.26904 31.2376L7.26969 31.2395Z" fill="black"/>
<path d="M53.5473 24.9948V25.3691C53.5473 27.1973 53.5422 29.0254 53.5531 30.8536C53.5551 31.1372 53.4912 31.2452 53.1811 31.2446C45.4569 31.2369 37.7334 31.2369 30.0093 31.2446C29.7185 31.2446 29.6488 31.1469 29.6488 30.8748C29.6443 22.3545 29.6327 13.8334 29.623 5.31303C29.623 4.90662 29.6501 4.86997 30.0603 4.87125C32.2618 4.87704 34.4634 4.88926 36.6643 4.90148C36.7365 4.90148 36.8094 4.92077 36.9299 4.93813V5.83775C36.9299 12.0708 36.9299 18.3039 36.9299 24.537C36.9299 24.8426 37.0828 24.9957 37.3884 24.9961C42.5983 24.9961 47.8087 24.9961 53.0185 24.9961H53.5467L53.5473 24.9948Z" fill="black"/>
<path d="M133.416 4.76898C133.585 4.76898 133.755 4.76898 133.925 4.76898C136.062 4.76898 138.201 4.7767 140.338 4.76127C140.706 4.75869 140.961 4.8828 141.208 5.14066C142.326 6.30973 143.458 7.46464 144.585 8.6247C144.614 8.65428 144.648 8.68 144.742 8.76231C144.996 8.48966 145.244 8.21508 145.5 7.9495C146.461 6.95535 147.42 5.96119 148.391 4.97733C148.493 4.87316 148.666 4.78056 148.807 4.77991C151.138 4.77027 153.469 4.77541 155.8 4.77927C155.862 4.77927 155.924 4.79342 156.092 4.81335C153.53 7.44921 151.021 10.0311 148.484 12.6425C150.999 15.2352 153.508 17.8203 156.083 20.4735C155.89 20.4973 155.785 20.5211 155.679 20.5211C153.423 20.525 151.167 20.5224 148.911 20.5333C148.599 20.5346 148.422 20.3578 148.234 20.1636C147.13 19.0254 146.025 17.8891 144.919 16.7522C144.86 16.6911 144.796 16.6352 144.715 16.5586C144.612 16.6557 144.509 16.7445 144.414 16.8416C143.291 17.9907 142.173 19.145 141.04 20.2851C140.919 20.4066 140.714 20.5115 140.547 20.5127C138.291 20.5275 136.034 20.5237 133.779 20.5224C133.676 20.5224 133.572 20.5108 133.436 20.4555C135.884 17.8062 138.418 15.2539 140.932 12.6405C138.404 10.0375 135.894 7.45049 133.383 4.86415C133.394 4.83264 133.405 4.80113 133.416 4.76898Z" fill="black"/>
<path d="M193.729 30.9681C193.267 30.9681 192.869 30.9289 192.483 30.9771C191.896 31.0504 191.583 30.8241 191.319 30.2955C190.361 28.3734 189.347 26.4784 188.359 24.5704C187.794 23.4766 187.799 23.4734 186.574 23.4734C181.482 23.4734 176.389 23.4753 171.296 23.4676C171.016 23.4676 170.861 23.5371 170.726 23.8001C169.563 26.0623 168.376 28.3136 167.21 30.5746C167.062 30.8614 166.882 30.9868 166.557 30.9733C166.058 30.9527 165.557 30.9675 164.988 30.9675C165.082 30.7508 165.134 30.6042 165.206 30.4678C166.408 28.1773 167.612 25.8887 168.816 23.5994C170.626 20.1553 172.438 16.7124 174.245 13.2656C175.57 10.7378 176.883 8.2042 178.216 5.68024C178.279 5.56127 178.473 5.45131 178.613 5.44231C179.073 5.41209 179.536 5.44038 179.998 5.42688C180.246 5.4198 180.388 5.51497 180.502 5.73425C181.843 8.29037 183.195 10.8401 184.538 13.3949C186.459 17.0474 188.375 20.7019 190.291 24.3563C191.403 26.4771 192.509 28.6011 193.617 30.7238C193.642 30.7701 193.661 30.8189 193.73 30.9675L193.729 30.9681ZM179.311 7.32387C176.818 12.0959 174.349 16.8223 171.862 21.5815H186.781C184.29 16.8268 181.816 12.1075 179.311 7.32387Z" fill="black"/>
<path d="M144.722 31.084C141.101 31.084 137.48 31.084 133.86 31.084C133.4 31.084 133.399 31.0833 133.398 30.6261C133.398 29.1503 133.405 27.6746 133.393 26.1994C133.39 25.8939 133.485 25.7936 133.796 25.7936C141.016 25.7968 148.236 25.7917 155.456 25.7878C155.531 25.7878 155.607 25.7975 155.681 25.7936C155.945 25.7788 156.033 25.8997 156.031 26.1602C156.022 27.5607 156.027 28.9619 156.027 30.3625C156.027 30.8435 155.782 31.084 155.294 31.084C151.77 31.084 148.246 31.084 144.722 31.084Z" fill="#FFAF00"/>
<path d="M161.652 29.7937C161.646 30.6799 161.066 31.2464 160.171 31.2412C159.353 31.2367 158.723 30.5898 158.729 29.7609C158.734 28.9501 159.371 28.3109 160.17 28.3147C161.087 28.3192 161.659 28.8908 161.652 29.7937Z" fill="black"/>
</g>
<path d="M501.299 19.3454L509.28 4.42993H511.392L502.29 21.1958V31.7562H500.364V21.3453L491.187 4.42993H493.318L501.299 19.3454Z" fill="#868D96"/>
<path d="M475.079 4.42993C477.247 4.42993 479.054 4.66668 480.5 5.14019C481.958 5.6137 483.054 6.39249 483.789 7.47657C484.524 8.56065 484.892 10.0248 484.892 11.869C484.892 13.2521 484.637 14.4421 484.126 15.4389C483.627 16.4233 482.936 17.2333 482.051 17.8688C481.166 18.5043 480.144 18.9902 478.986 19.3267L486.481 31.7562H484.2L477.154 19.8687H470.369V31.7562H468.444V4.42993H475.079ZM474.892 6.13082H470.369V18.1678H475.808C478.039 18.1678 479.777 17.632 481.023 16.5604C482.282 15.4888 482.911 13.9499 482.911 11.9437C482.911 9.73818 482.25 8.21798 480.93 7.38311C479.609 6.54825 477.596 6.13082 474.892 6.13082Z" fill="#868D96"/>
<path d="M458.336 18.0557C458.336 20.1366 458.08 22.0368 457.569 23.7564C457.059 25.476 456.292 26.9588 455.27 28.2049C454.249 29.451 452.971 30.4167 451.439 31.102C449.919 31.7873 448.143 32.13 446.112 32.13C444.068 32.13 442.28 31.7873 440.748 31.102C439.215 30.4167 437.938 29.451 436.916 28.2049C435.907 26.9464 435.146 25.4573 434.636 23.7377C434.125 22.0057 433.869 20.0992 433.869 18.0183C433.869 15.252 434.337 12.8159 435.271 10.7101C436.218 8.60422 437.607 6.95941 439.439 5.77565C441.283 4.59188 443.557 4 446.261 4C448.853 4 451.046 4.56696 452.841 5.70088C454.647 6.82235 456.012 8.436 456.934 10.5419C457.869 12.6353 458.336 15.1399 458.336 18.0557ZM435.888 18.037C435.888 20.4793 436.255 22.635 436.991 24.5041C437.726 26.3607 438.854 27.8124 440.374 28.8591C441.894 29.9058 443.813 30.4291 446.131 30.4291C448.473 30.4291 450.398 29.912 451.906 28.8778C453.414 27.8435 454.529 26.3981 455.252 24.5414C455.974 22.6848 456.336 20.5229 456.336 18.0557C456.336 14.1555 455.482 11.1275 453.775 8.97181C452.081 6.81612 449.576 5.73827 446.261 5.73827C443.931 5.73827 441.994 6.25538 440.448 7.28962C438.916 8.32386 437.769 9.76307 437.009 11.6072C436.262 13.4514 435.888 15.5947 435.888 18.037Z" fill="#868D96"/>
<path d="M418.584 31.7562H416.64V6.1682H407.78V4.42993H427.443V6.1682H418.584V31.7562Z" fill="#868D96"/>
<path d="M407.175 14.0085L405.076 13.3638C404.942 13.3227 404.797 13.3365 404.674 13.4019C404.613 13.4344 404.558 13.4785 404.514 13.5319C404.47 13.5852 404.437 13.6468 404.417 13.713L404.205 14.4025L402.414 13.8554L402.663 13.0363C402.748 12.7579 402.591 12.4633 402.313 12.3783L398.356 11.1694L398.493 10.7193C398.578 10.4409 398.421 10.1463 398.143 10.0613L383.82 5.68553L383.86 5.55352C383.945 5.27508 383.788 4.98058 383.51 4.89554L380.667 4.02689C380.533 3.98605 380.388 4.00002 380.265 4.06574C380.141 4.13151 380.049 4.24364 380.008 4.37746L377.538 12.4833C377.453 12.7618 377.61 13.0563 377.888 13.1414L380.731 14.01C380.781 14.0252 380.833 14.033 380.885 14.033C380.972 14.033 381.057 14.0118 381.133 13.9712C381.194 13.9386 381.248 13.8943 381.293 13.8408C381.337 13.7874 381.37 13.7257 381.39 13.6595L381.43 13.5281L391.819 16.7017C391.432 17.0555 391.189 17.5639 391.189 18.1281C391.189 18.877 391.617 19.5273 392.241 19.8484L383.908 31.2963C383.736 31.5317 383.788 31.8616 384.024 32.033C384.114 32.0986 384.222 32.134 384.333 32.1339C384.496 32.1339 384.657 32.0587 384.76 31.917L392.595 21.1546V31.6066C392.595 31.8979 392.831 32.1339 393.122 32.1339C393.413 32.1339 393.649 31.8979 393.649 31.6066V21.1546L401.484 31.917C401.588 32.0587 401.748 32.1339 401.911 32.1339C402.022 32.1339 402.131 32.0986 402.221 32.033C402.456 31.8616 402.508 31.5317 402.337 31.2963L394.003 19.8484C394.627 19.5273 395.056 18.877 395.056 18.1281C395.055 17.9751 395.037 17.8227 395.001 17.674L395.752 17.9033C395.802 17.9186 395.854 17.9264 395.906 17.9263C395.992 17.9263 396.078 17.9051 396.154 17.8645C396.277 17.7987 396.37 17.6866 396.41 17.5528L396.547 17.1035L400.504 18.312C400.554 18.3273 400.606 18.3351 400.658 18.3351C400.744 18.335 400.83 18.3138 400.906 18.2732C401.029 18.2074 401.122 18.0953 401.162 17.9615L401.412 17.1433L403.196 17.6883L402.963 18.4473C402.942 18.5135 402.935 18.583 402.942 18.652C402.948 18.7209 402.968 18.7879 403.001 18.8491C403.033 18.9102 403.077 18.9644 403.131 19.0086C403.184 19.0527 403.246 19.0858 403.312 19.1062L405.411 19.7509C405.461 19.7664 405.513 19.7743 405.566 19.7743C405.792 19.7743 406 19.6285 406.07 19.4016L407.524 14.6675C407.609 14.389 407.453 14.094 407.175 14.0085ZM380.535 12.8473L378.7 12.2868L380.863 5.18962L382.697 5.7501L380.535 12.8473ZM393.122 19.0068C392.638 19.0068 392.243 18.6127 392.243 18.1281C392.243 17.6436 392.638 17.2494 393.122 17.2494C393.607 17.2494 394.001 17.6436 394.001 18.1281C394.001 18.6127 393.607 19.0068 393.122 19.0068ZM382.043 12.6128L383.819 6.78778L397.331 10.9158L395.555 16.7406L382.043 12.6128ZM400.307 17.1493L396.884 16.1036L398.078 12.1871L401.501 13.2329L401.097 14.5594L400.557 16.331C400.556 16.3316 400.556 16.3322 400.556 16.3328L400.307 17.1493ZM402.106 14.8642L403.868 15.4023L403.481 16.6728L401.719 16.1344L402.106 14.8642ZM405.217 18.5879L404.126 18.2528L405.27 14.5267L406.361 14.8618L405.217 18.5879Z" fill="#868D96"/>
<path d="M376.948 4.42993L366.854 31.7562H364.948L354.855 4.42993H356.873L364.35 24.6536C364.562 25.2393 364.761 25.8125 364.948 26.3732C365.135 26.9215 365.309 27.451 365.471 27.9619C365.633 28.4728 365.777 28.965 365.901 29.4385C366.026 28.965 366.163 28.4853 366.312 27.9993C366.474 27.5009 366.649 26.9775 366.836 26.4293C367.023 25.8685 367.228 25.2704 367.453 24.6349L374.91 4.42993H376.948Z" fill="#868D96"/>
<path d="M338.747 4.42993C340.915 4.42993 342.722 4.66668 344.167 5.14019C345.625 5.6137 346.722 6.39249 347.457 7.47657C348.192 8.56065 348.56 10.0248 348.56 11.869C348.56 13.2521 348.304 14.4421 347.793 15.4389C347.295 16.4233 346.603 17.2333 345.719 17.8688C344.834 18.5043 343.812 18.9902 342.653 19.3267L350.148 31.7562H347.868L340.822 19.8687H334.037V31.7562H332.112V4.42993H338.747ZM338.56 6.13082H334.037V18.1678H339.476C341.706 18.1678 343.445 17.632 344.691 16.5604C345.949 15.4888 346.578 13.9499 346.578 11.9437C346.578 9.73818 345.918 8.21798 344.597 7.38311C343.276 6.54825 341.264 6.13082 338.56 6.13082Z" fill="#868D96"/>
<path d="M322.059 31.7562H307.125V4.42993H322.059V6.1682H309.051V16.523H321.331V18.2613H309.051V30.018H322.059V31.7562Z" fill="#868D96"/>
<path d="M297.447 24.7096C297.447 26.342 297.036 27.7127 296.214 28.8217C295.391 29.9182 294.276 30.7468 292.868 31.3076C291.46 31.8558 289.865 32.13 288.083 32.13C286.974 32.13 285.965 32.0739 285.055 31.9618C284.158 31.8621 283.342 31.725 282.606 31.5505C281.884 31.3761 281.223 31.1767 280.625 30.9524V29.0273C281.597 29.4011 282.719 29.7313 283.99 30.0179C285.273 30.292 286.669 30.4291 288.176 30.4291C289.597 30.4291 290.855 30.2235 291.952 29.8123C293.061 29.4011 293.933 28.778 294.569 27.9432C295.204 27.1083 295.522 26.0554 295.522 24.7844C295.522 23.6629 295.254 22.7471 294.718 22.0368C294.195 21.3141 293.404 20.6973 292.344 20.1864C291.285 19.6631 289.952 19.1335 288.345 18.5977C287.223 18.2114 286.201 17.8064 285.279 17.3827C284.37 16.9466 283.591 16.4482 282.943 15.8875C282.295 15.3143 281.797 14.6289 281.448 13.8315C281.111 13.0215 280.943 12.0683 280.943 10.9717C280.943 9.46398 281.323 8.19922 282.083 7.17745C282.856 6.14321 283.896 5.36442 285.205 4.84107C286.525 4.30526 288.008 4.03735 289.653 4.03735C290.961 4.03735 292.201 4.16196 293.372 4.41117C294.556 4.64793 295.696 5.00929 296.793 5.49525L296.12 7.15876C295.024 6.68525 293.927 6.33635 292.83 6.11206C291.734 5.88777 290.65 5.77562 289.578 5.77562C288.295 5.77562 287.148 5.96876 286.139 6.35504C285.142 6.72886 284.351 7.29582 283.765 8.05592C283.18 8.81603 282.887 9.7755 282.887 10.9343C282.887 12.1306 283.155 13.0963 283.691 13.8315C284.239 14.5666 285.011 15.1772 286.008 15.6632C287.018 16.1491 288.208 16.6226 289.578 17.0837C291.198 17.632 292.594 18.2114 293.765 18.822C294.936 19.4201 295.84 20.1802 296.475 21.1023C297.123 22.0244 297.447 23.2268 297.447 24.7096Z" fill="#868D96"/>
<path d="M254.574 4.42993H262.069C265.446 4.42993 267.913 4.95951 269.47 6.01867C271.04 7.07783 271.825 8.76625 271.825 11.0839C271.825 12.1306 271.62 13.0839 271.209 13.9437C270.81 14.8035 270.212 15.5262 269.414 16.1118C268.629 16.685 267.657 17.0775 266.499 17.2894V17.4202C267.882 17.632 269.022 18.0183 269.919 18.579C270.829 19.1273 271.502 19.8563 271.938 20.7659C272.386 21.6631 272.611 22.7347 272.611 23.9807C272.611 25.7751 272.199 27.2454 271.377 28.3918C270.567 29.5382 269.439 30.3855 267.994 30.9338C266.548 31.4821 264.879 31.7562 262.985 31.7562H254.574V4.42993ZM256.499 16.5791H262.555C265.122 16.5791 266.978 16.1305 268.125 15.2333C269.271 14.3362 269.844 13.0091 269.844 11.2522C269.844 9.4329 269.227 8.12453 267.994 7.32704C266.76 6.52956 264.785 6.13082 262.069 6.13082H256.499V16.5791ZM256.499 18.2613V30.0553H262.929C265.458 30.0553 267.365 29.5444 268.648 28.5227C269.931 27.4884 270.573 25.9495 270.573 23.906C270.573 22.5602 270.274 21.4762 269.676 20.6537C269.078 19.8189 268.181 19.2145 266.985 18.8407C265.801 18.4544 264.324 18.2613 262.555 18.2613H256.499Z" fill="#868D96"/>
<path d="M244.466 18.0557C244.466 20.1366 244.21 22.0368 243.699 23.7564C243.188 25.476 242.422 26.9588 241.4 28.2049C240.378 29.451 239.101 30.4167 237.569 31.102C236.048 31.7873 234.273 32.13 232.242 32.13C230.198 32.13 228.41 31.7873 226.877 31.102C225.345 30.4167 224.067 29.451 223.046 28.2049C222.036 26.9464 221.276 25.4573 220.765 23.7377C220.254 22.0057 219.999 20.0992 219.999 18.0183C219.999 15.252 220.466 12.8159 221.401 10.7101C222.348 8.60422 223.737 6.95941 225.569 5.77565C227.413 4.59188 229.687 4 232.391 4C234.983 4 237.176 4.56696 238.97 5.70088C240.777 6.82235 242.142 8.436 243.064 10.5419C243.998 12.6353 244.466 15.1399 244.466 18.0557ZM222.018 18.037C222.018 20.4793 222.385 22.635 223.12 24.5041C223.856 26.3607 224.983 27.8124 226.503 28.8591C228.024 29.9058 229.943 30.4291 232.26 30.4291C234.603 30.4291 236.528 29.912 238.036 28.8778C239.544 27.8435 240.659 26.3981 241.382 24.5414C242.104 22.6848 242.466 20.5229 242.466 18.0557C242.466 14.1555 241.612 11.1275 239.905 8.97181C238.21 6.81612 235.706 5.73827 232.391 5.73827C230.061 5.73827 228.123 6.25538 226.578 7.28962C225.046 8.32386 223.899 9.76307 223.139 11.6072C222.391 13.4514 222.018 15.5947 222.018 18.037Z" fill="#868D96"/>
</g>
<defs>
<clipPath id="clip0_19_920">
<rect width="511.392" height="36.1339" fill="white"/>
</clipPath>
</defs>
</svg>
