<svg width="468" height="50" viewBox="0 0 468 50" fill="none" xmlns="http://www.w3.org/2000/svg">
<g clip-path="url(#clip0_18_587)">
<path d="M399.944 26.5858L411.292 5.37939H414.295L401.353 29.2166V44.2311H398.616V29.4292L385.568 5.37939H388.597L399.944 26.5858Z" fill="#868D96"/>
<path d="M362.666 5.37939C365.749 5.37939 368.317 5.716 370.373 6.38922C372.445 7.06244 374.004 8.1697 375.05 9.71102C376.095 11.2523 376.617 13.334 376.617 15.956C376.617 17.9225 376.254 19.6144 375.528 21.0317C374.819 22.4313 373.836 23.5828 372.578 24.4864C371.32 25.3899 369.868 26.0808 368.22 26.5592L378.876 44.2311H375.634L365.616 27.3298H355.969V44.2311H353.232V5.37939H362.666ZM362.4 7.79766H355.969V24.9116H363.702C366.874 24.9116 369.345 24.1498 371.117 22.6262C372.906 21.1026 373.801 18.9146 373.801 16.0623C373.801 12.9265 372.862 10.7651 370.984 9.57815C369.106 8.39116 366.245 7.79766 362.4 7.79766Z" fill="#868D96"/>
<path d="M338.861 24.7521C338.861 27.7107 338.497 30.4125 337.771 32.8573C337.045 35.3022 335.955 37.4104 334.502 39.182C333.05 40.9536 331.234 42.3266 329.055 43.301C326.893 44.2754 324.369 44.7626 321.481 44.7626C318.575 44.7626 316.033 44.2754 313.854 43.301C311.675 42.3266 309.859 40.9536 308.406 39.182C306.971 37.3927 305.891 35.2756 305.164 32.8307C304.438 30.3682 304.075 27.6576 304.075 24.699C304.075 20.766 304.739 17.3024 306.068 14.3084C307.414 11.3143 309.39 8.9758 311.994 7.29275C314.616 5.60971 317.849 4.76819 321.694 4.76819C325.379 4.76819 328.497 5.57428 331.048 7.18646C333.617 8.78092 335.557 11.0752 336.868 14.0692C338.196 17.0456 338.861 20.6065 338.861 24.7521ZM306.945 24.7255C306.945 28.1979 307.467 31.2628 308.513 33.9203C309.558 36.56 311.161 38.624 313.323 40.1121C315.484 41.6003 318.212 42.3444 321.508 42.3444C324.838 42.3444 327.575 41.6091 329.719 40.1387C331.863 38.6682 333.448 36.6132 334.476 33.9734C335.503 31.3337 336.017 28.2599 336.017 24.7521C336.017 19.2069 334.804 14.9019 332.376 11.837C329.967 8.77206 326.406 7.23961 321.694 7.23961C318.381 7.23961 315.626 7.97483 313.429 9.44528C311.25 10.9157 309.62 12.962 308.539 15.584C307.476 18.206 306.945 21.2532 306.945 24.7255Z" fill="#868D96"/>
<path d="M282.342 44.2311H279.578V7.85081H266.982V5.37939H294.938V7.85081H282.342V44.2311Z" fill="#868D96"/>
<path d="M266.121 18.998L263.137 18.0813C262.947 18.0229 262.741 18.0424 262.565 18.1355C262.478 18.1816 262.401 18.2444 262.339 18.3203C262.276 18.3962 262.229 18.4836 262.2 18.5777L261.899 19.5581L259.352 18.7802L259.707 17.6157C259.828 17.2198 259.605 16.8011 259.209 16.6802L253.583 14.9614L253.778 14.3215C253.898 13.9256 253.676 13.5068 253.28 13.3859L232.916 7.16457L232.973 6.97688C233.094 6.58101 232.871 6.16229 232.475 6.04138L228.433 4.80636C228.242 4.74829 228.037 4.76816 227.861 4.8616C227.686 4.95511 227.554 5.11453 227.496 5.30479L223.984 16.8295C223.863 17.2254 224.086 17.6442 224.482 17.7651L228.525 19C228.596 19.0217 228.67 19.0328 228.744 19.0328C228.867 19.0328 228.988 19.0026 229.096 18.9448C229.183 18.8985 229.26 18.8356 229.323 18.7595C229.385 18.6835 229.432 18.5959 229.461 18.5017L229.518 18.3149L244.288 22.8271C243.739 23.3301 243.393 24.0529 243.393 24.8551C243.393 25.9199 244.002 26.8444 244.889 27.301L233.041 43.5773C232.797 43.912 232.871 44.3809 233.206 44.6246C233.333 44.718 233.488 44.7682 233.646 44.7681C233.878 44.7681 234.106 44.6612 234.253 44.4598L245.392 29.1581V44.0184C245.392 44.4326 245.728 44.7681 246.142 44.7681C246.556 44.7681 246.891 44.4326 246.891 44.0184V29.1581L258.031 44.4598C258.178 44.6612 258.406 44.7681 258.637 44.7681C258.796 44.7682 258.95 44.7179 259.078 44.6246C259.413 44.3809 259.487 43.912 259.243 43.5773L247.394 27.301C248.282 26.8444 248.891 25.9199 248.891 24.8551C248.89 24.6376 248.865 24.4208 248.813 24.2094L249.881 24.5355C249.952 24.5572 250.025 24.5682 250.1 24.5682C250.223 24.5682 250.344 24.538 250.452 24.4803C250.628 24.3867 250.759 24.2273 250.817 24.0371L251.012 23.3983L256.637 25.1166C256.708 25.1383 256.782 25.1494 256.856 25.1493C256.979 25.1493 257.1 25.1191 257.208 25.0614C257.384 24.9678 257.515 24.8084 257.573 24.6182L257.928 23.4549L260.464 24.2298L260.133 25.3088C260.104 25.403 260.093 25.5019 260.103 25.5999C260.112 25.6979 260.141 25.7931 260.187 25.8801C260.233 25.9671 260.296 26.0442 260.372 26.1069C260.448 26.1696 260.535 26.2168 260.629 26.2457L263.614 27.1623C263.685 27.1843 263.759 27.1956 263.834 27.1956C264.155 27.1956 264.451 26.9883 264.55 26.6657L266.618 19.9348C266.739 19.5389 266.517 19.1195 266.121 18.998ZM228.245 17.3469L225.637 16.55L228.712 6.4595L231.32 7.25637L228.245 17.3469ZM246.142 26.1044C245.453 26.1044 244.892 25.544 244.892 24.8551C244.892 24.1662 245.453 23.6057 246.142 23.6057C246.831 23.6057 247.391 24.1662 247.391 24.8551C247.391 25.5441 246.831 26.1044 246.142 26.1044ZM230.39 17.0136L232.914 8.73172L252.125 14.6009L249.601 22.8823L230.39 17.0136ZM256.357 23.4634L251.49 21.9767L253.187 16.4083L258.054 17.8952L257.48 19.7812L256.712 22.3C256.712 22.3008 256.712 22.3016 256.711 22.3025L256.357 23.4634ZM258.915 20.2145L261.42 20.9796L260.87 22.7859L258.365 22.0205L258.915 20.2145ZM263.337 25.5088L261.786 25.0324L263.413 19.7347L264.964 20.2111L263.337 25.5088Z" fill="#868D96"/>
<path d="M223.145 5.37939L208.795 44.2311H206.084L191.734 5.37939H194.604L205.234 34.1329C205.535 34.9655 205.819 35.7805 206.084 36.5777C206.35 37.3572 206.598 38.1102 206.828 38.8365C207.059 39.5629 207.262 40.2627 207.44 40.9359C207.617 40.2627 207.812 39.5806 208.024 38.8897C208.255 38.181 208.503 37.437 208.768 36.6574C209.034 35.8602 209.326 35.0098 209.645 34.1063L220.249 5.37939H223.145Z" fill="#868D96"/>
<path d="M168.832 5.37939C171.915 5.37939 174.484 5.716 176.539 6.38922C178.612 7.06244 180.171 8.1697 181.216 9.71102C182.261 11.2523 182.784 13.334 182.784 15.956C182.784 17.9225 182.421 19.6144 181.694 21.0317C180.986 22.4313 180.003 23.5828 178.745 24.4864C177.487 25.3899 176.034 26.0808 174.386 26.5592L185.043 44.2311H181.801L171.782 27.3298H162.136V44.2311H159.398V5.37939H168.832ZM168.567 7.79766H162.136V24.9116H169.869C173.04 24.9116 175.511 24.1498 177.283 22.6262C179.072 21.1026 179.967 18.9146 179.967 16.0623C179.967 12.9265 179.028 10.7651 177.15 9.57815C175.272 8.39116 172.411 7.79766 168.567 7.79766Z" fill="#868D96"/>
<path d="M145.107 44.2311H123.874V5.37939H145.107V7.85081H126.611V22.573H144.07V25.0444H126.611V41.7597H145.107V44.2311Z" fill="#868D96"/>
<path d="M110.114 34.2126C110.114 36.5334 109.529 38.4822 108.36 40.0589C107.19 41.6179 105.605 42.7961 103.603 43.5933C101.601 44.3728 99.3333 44.7626 96.7998 44.7626C95.2231 44.7626 93.7881 44.6829 92.4948 44.5234C91.2192 44.3817 90.0588 44.1868 89.0135 43.9388C87.986 43.6908 87.047 43.4073 86.1967 43.0884V40.3512C87.5785 40.8827 89.173 41.3522 90.98 41.7597C92.8048 42.1494 94.789 42.3443 96.9327 42.3443C98.9524 42.3443 100.742 42.052 102.301 41.4674C103.877 40.8827 105.118 39.9969 106.021 38.8099C106.925 37.6229 107.376 36.1259 107.376 34.3189C107.376 32.7244 106.996 31.4222 106.234 30.4124C105.49 29.3849 104.365 28.5079 102.859 27.7816C101.353 27.0375 99.4573 26.2845 97.1719 25.5227C95.5774 24.9735 94.1247 24.3978 92.8137 23.7954C91.5204 23.1753 90.4131 22.4667 89.4919 21.6694C88.5706 20.8545 87.862 19.8801 87.3659 18.7463C86.8876 17.5947 86.6484 16.2394 86.6484 14.6804C86.6484 12.5367 87.1888 10.7385 88.2695 9.28579C89.3679 7.81534 90.8472 6.70807 92.7074 5.96399C94.5853 5.20219 96.6935 4.82129 99.0321 4.82129C100.892 4.82129 102.655 4.99845 104.32 5.35278C106.003 5.68939 107.624 6.20316 109.183 6.89409L108.227 9.25921C106.668 8.58599 105.109 8.08994 103.55 7.77105C101.991 7.45215 100.449 7.29271 98.9258 7.29271C97.101 7.29271 95.4711 7.56731 94.0361 8.11651C92.6188 8.648 91.4938 9.45409 90.6612 10.5348C89.8285 11.6155 89.4122 12.9796 89.4122 14.6272C89.4122 16.328 89.7931 17.701 90.5549 18.7463C91.3344 19.7915 92.4328 20.6596 93.8501 21.3506C95.2851 22.0415 96.977 22.7147 98.9258 23.3702C101.229 24.1497 103.213 24.9735 104.878 25.8416C106.544 26.692 107.828 27.7727 108.732 29.0837C109.653 30.3947 110.114 32.1043 110.114 34.2126Z" fill="#868D96"/>
<path d="M49.1573 5.37939H59.8136C64.6147 5.37939 68.1225 6.13234 70.3371 7.63822C72.5693 9.1441 73.6854 11.5447 73.6854 14.8399C73.6854 16.328 73.3931 17.6833 72.8085 18.9058C72.2416 20.1282 71.3912 21.1557 70.2573 21.9884C69.1412 22.8033 67.7594 23.3614 66.1117 23.6626V23.8486C68.0782 24.1498 69.6993 24.699 70.9749 25.4962C72.2681 26.2757 73.2248 27.3121 73.8449 28.6054C74.4827 29.881 74.8016 31.4046 74.8016 33.1762C74.8016 35.7273 74.2169 37.8179 73.0477 39.4478C71.8961 41.0776 70.2928 42.2824 68.2377 43.0619C66.1826 43.8414 63.8086 44.2311 61.1158 44.2311H49.1573V5.37939ZM51.8944 22.6527H60.5045C64.1541 22.6527 66.7938 22.015 68.4237 20.7394C70.0536 19.4638 70.8686 17.577 70.8686 15.079C70.8686 12.4925 69.9916 10.6323 68.2377 9.49842C66.4838 8.36458 63.6758 7.79766 59.8136 7.79766H51.8944V22.6527ZM51.8944 25.0444V41.8129H61.036C64.6324 41.8129 67.343 41.0865 69.1678 39.6338C70.9926 38.1633 71.905 35.9754 71.905 33.0699C71.905 31.1565 71.4798 29.6152 70.6294 28.446C69.779 27.259 68.5034 26.3997 66.8027 25.8682C65.1196 25.319 63.0203 25.0444 60.5045 25.0444H51.8944Z" fill="#868D96"/>
<path d="M34.7859 24.7521C34.7859 27.7107 34.4227 30.4125 33.6963 32.8573C32.97 35.3022 31.8804 37.4104 30.4277 39.182C28.9749 40.9536 27.159 42.3266 24.9799 43.301C22.8185 44.2754 20.294 44.7626 17.4062 44.7626C14.5008 44.7626 11.9585 44.2754 9.77937 43.301C7.60027 42.3266 5.78436 40.9536 4.33162 39.182C2.89661 37.3927 1.81592 35.2756 1.08955 32.8307C0.363183 30.3682 0 27.6576 0 24.699C0 20.766 0.66436 17.3024 1.99308 14.3084C3.33951 11.3143 5.31488 8.9758 7.91917 7.29275C10.5412 5.60971 13.7744 4.76819 17.6188 4.76819C21.3038 4.76819 24.4219 5.57428 26.973 7.18646C29.5419 8.78092 31.4818 11.0752 32.7928 14.0692C34.1215 17.0456 34.7859 20.6065 34.7859 24.7521ZM2.87003 24.7255C2.87003 28.1979 3.39266 31.2628 4.43792 33.9203C5.48318 36.56 7.0865 38.624 9.24789 40.1121C11.4093 41.6003 14.1376 42.3444 17.4328 42.3444C20.7635 42.3444 23.5006 41.6091 25.6443 40.1387C27.7879 38.6682 29.3736 36.6132 30.4011 33.9734C31.4286 31.3337 31.9424 28.2599 31.9424 24.7521C31.9424 19.2069 30.7288 14.9019 28.3017 11.837C25.8923 8.77206 22.3313 7.23961 17.6188 7.23961C14.3059 7.23961 11.551 7.97483 9.35418 9.44528C7.17508 10.9157 5.54519 12.962 4.4645 15.584C3.40152 18.206 2.87003 21.2532 2.87003 24.7255Z" fill="#868D96"/>
<path d="M424.357 0.0145955C424.676 0.0145955 424.995 0.0145955 425.314 0.0145955C429.337 0.0145955 433.361 0.0291173 437.384 7.36884e-05C438.077 -0.00476648 438.556 0.228791 439.02 0.714056C441.124 2.91409 443.255 5.08748 445.376 7.2706C445.431 7.32624 445.494 7.37466 445.671 7.52953C446.149 7.01645 446.615 6.4997 447.098 5.99991C448.905 4.12906 450.711 2.25819 452.538 0.40668C452.731 0.210638 453.056 0.036378 453.32 0.0351677C457.707 0.017016 462.094 0.0266972 466.481 0.0339579C466.598 0.0339579 466.714 0.060581 467.03 0.0980951C462.209 5.05846 457.488 9.91714 452.712 14.8315C457.446 19.7108 462.167 24.5756 467.013 29.5686C466.651 29.6133 466.452 29.6581 466.253 29.6581C462.008 29.6654 457.762 29.6606 453.517 29.6811C452.929 29.6835 452.597 29.3507 452.243 28.9853C450.165 26.8433 448.085 24.705 446.005 22.5655C445.893 22.4506 445.772 22.3453 445.62 22.2012C445.426 22.384 445.233 22.551 445.055 22.7337C442.941 24.8962 440.836 27.0684 438.704 29.214C438.476 29.4427 438.09 29.64 437.776 29.6424C433.531 29.6702 429.285 29.6629 425.04 29.6606C424.846 29.6606 424.651 29.6388 424.395 29.5347C429.001 24.5489 433.77 19.7459 438.5 14.8279C433.745 9.92923 429.02 5.06085 424.295 0.193696C424.315 0.134399 424.336 0.0751023 424.357 0.0145955Z" fill="black"/>
<path d="M445.634 49.5364C438.82 49.5364 432.006 49.5364 425.193 49.5364C424.328 49.5364 424.325 49.5351 424.324 48.6745C424.323 45.8975 424.336 43.1202 424.313 40.3441C424.308 39.7692 424.487 39.5805 425.073 39.5805C438.66 39.5865 452.247 39.5768 465.833 39.5696C465.975 39.5696 466.117 39.5877 466.257 39.5805C466.754 39.5526 466.92 39.7801 466.916 40.2702C466.899 42.9061 466.907 45.5428 466.907 48.1783C466.907 49.0839 466.448 49.5364 465.529 49.5364C458.897 49.5364 452.265 49.5364 445.633 49.5364H445.634Z" fill="#FFAF00"/>
</g>
<defs>
<clipPath id="clip0_18_587">
<rect width="467.03" height="49.5364" fill="white"/>
</clipPath>
</defs>
</svg>
