<svg width="329" height="230" viewBox="0 0 329 230" fill="none" xmlns="http://www.w3.org/2000/svg">
<mask id="mask0_19_593" style="mask-type:luminance" maskUnits="userSpaceOnUse" x="0" y="0" width="329" height="228">
<path d="M319.942 79.352C318.922 78.834 317.856 78.408 316.77 78.082C311.54 76.507 305.892 76.962 300.557 78.143C288.011 80.917 276.555 86.229 264.532 90.571C262.478 91.314 260.4 92.004 258.278 92.523C260.762 89.63 263.538 86.977 266.235 84.294C269.996 80.552 273.746 76.792 277.258 72.815C279.908 69.815 282.474 66.678 284.653 63.303C285.985 61.481 287.264 59.615 288.472 57.692C292.606 51.121 296.332 43.764 298.009 36.134C302.443 15.954 283.783 3.87303 266.116 0.996035C250.484 -1.54897 234.08 1.22503 218.728 4.35803C199.823 8.21603 181.381 14.196 163.583 21.62C111.137 43.495 59.4502 75.147 22.6572 119.027C13.9952 129.36 4.22218 141.869 0.84618 155.203C-0.70182 161.322 -0.28482 168.244 3.42918 173.345C7.65918 179.154 14.8552 180.865 21.5932 181.773C30.3162 182.948 39.1732 181.892 47.6242 179.587C65.4732 174.722 81.4282 164.967 98.0692 157.191C101.43 155.621 104.833 154.141 108.293 152.8C99.8052 161.247 90.8542 169.196 83.4892 178.707C76.6482 187.545 69.1092 200.055 74.3212 211.435C81.3732 226.836 101.04 228.02 115.747 227.773C134.027 227.464 152.018 222.866 169.207 216.913C219.617 199.45 265.578 170.612 302.705 132.321C312.508 122.214 328.873 106.705 328.473 91.446C328.33 86.015 324.615 81.724 319.942 79.352Z" fill="white"/>
</mask>
<g mask="url(#mask0_19_593)">
<path d="M319.942 79.352C318.922 78.834 317.856 78.408 316.77 78.082C311.54 76.507 305.892 76.962 300.557 78.143C288.011 80.917 276.555 86.229 264.532 90.571C262.478 91.314 260.4 92.004 258.278 92.523C260.762 89.63 263.538 86.977 266.235 84.294C269.996 80.552 273.746 76.792 277.258 72.815C279.908 69.815 282.474 66.678 284.653 63.303C285.985 61.481 287.264 59.615 288.472 57.692C292.606 51.121 296.332 43.764 298.009 36.134C302.443 15.954 283.783 3.87303 266.116 0.996035C250.484 -1.54897 234.08 1.22503 218.728 4.35803C199.823 8.21603 181.381 14.196 163.583 21.62C111.137 43.495 59.4502 75.147 22.6572 119.027C13.9952 129.36 4.22218 141.869 0.84618 155.203C-0.70182 161.322 -0.28482 168.244 3.42918 173.345C7.65918 179.154 14.8552 180.865 21.5932 181.773C30.3162 182.948 39.1732 181.892 47.6242 179.587C65.4732 174.722 81.4282 164.967 98.0692 157.191C101.43 155.621 104.833 154.141 108.293 152.8C99.8052 161.247 90.8542 169.196 83.4892 178.707C76.6482 187.545 69.1092 200.055 74.3212 211.435C81.3732 226.836 101.04 228.02 115.747 227.773C134.027 227.464 152.018 222.866 169.207 216.913C219.617 199.45 265.578 170.612 302.705 132.321C312.508 122.214 328.873 106.705 328.473 91.446C328.33 86.015 324.615 81.724 319.942 79.352Z" fill="url(#paint0_linear_19_593)" fill-opacity="0.5"/>
</g>
<mask id="mask1_19_593" style="mask-type:luminance" maskUnits="userSpaceOnUse" x="0" y="0" width="329" height="228">
<path d="M319.942 79.352C318.922 78.834 317.856 78.408 316.77 78.082C311.54 76.507 305.892 76.962 300.557 78.143C288.011 80.917 276.555 86.229 264.532 90.571C262.478 91.314 260.4 92.004 258.278 92.523C260.762 89.63 263.538 86.977 266.235 84.294C269.996 80.552 273.746 76.792 277.258 72.815C279.908 69.815 282.474 66.678 284.653 63.303C285.985 61.481 287.264 59.615 288.472 57.692C292.606 51.121 296.332 43.764 298.009 36.134C302.443 15.954 283.783 3.87303 266.116 0.996035C250.484 -1.54897 234.08 1.22503 218.728 4.35803C199.823 8.21603 181.381 14.196 163.583 21.62C111.137 43.495 59.4502 75.147 22.6572 119.027C13.9952 129.36 4.22218 141.869 0.84618 155.203C-0.70182 161.322 -0.28482 168.244 3.42918 173.345C7.65918 179.154 14.8552 180.865 21.5932 181.773C30.3162 182.948 39.1732 181.892 47.6242 179.587C65.4732 174.722 81.4282 164.967 98.0692 157.191C101.43 155.621 104.833 154.141 108.293 152.8C99.8052 161.247 90.8542 169.196 83.4892 178.707C76.6482 187.545 69.1092 200.055 74.3212 211.435C81.3732 226.836 101.04 228.02 115.747 227.773C134.027 227.464 152.018 222.866 169.207 216.913C219.617 199.45 265.578 170.612 302.705 132.321C312.508 122.214 328.873 106.705 328.473 91.446C328.33 86.015 324.615 81.724 319.942 79.352Z" fill="white"/>
</mask>
<g mask="url(#mask1_19_593)">
<path d="M310.596 60.472C310.306 60.538 310.018 60.358 309.951 60.068C309.885 59.778 310.064 59.491 310.354 59.424C310.646 59.359 310.932 59.539 310.999 59.828C311.066 60.118 310.885 60.407 310.596 60.472Z" fill="#F6FAF0"/>
<path d="M268.243 48.84C268.243 49.137 268.003 49.378 267.705 49.378C267.407 49.378 267.167 49.137 267.167 48.84C267.167 48.544 267.407 48.303 267.705 48.303C268.003 48.303 268.243 48.544 268.243 48.84Z" fill="#F6FAF0"/>
<path d="M286.338 43.0661C286.338 43.3621 286.097 43.6031 285.8 43.6031C285.504 43.6031 285.264 43.3621 285.264 43.0661C285.264 42.7691 285.504 42.5291 285.8 42.5291C286.097 42.5291 286.338 42.7681 286.338 43.0661Z" fill="#F6FAF0"/>
<path d="M280.707 68.2901C280.707 68.5871 280.467 68.828 280.169 68.828C279.872 68.828 279.631 68.5871 279.631 68.2901C279.631 67.9941 279.872 67.7531 280.169 67.7531C280.467 67.7531 280.707 67.9941 280.707 68.2901Z" fill="#F6FAF0"/>
<path d="M296.665 15.5661C296.375 15.6321 296.087 15.4491 296.02 15.1601C295.955 14.8701 296.139 14.5831 296.427 14.5181C296.717 14.4521 297.005 14.6351 297.07 14.9231C297.135 15.2131 296.955 15.5011 296.665 15.5661Z" fill="#F6FAF0"/>
<path d="M270.817 15.614C270.528 15.679 270.24 15.497 270.175 15.207C270.111 14.918 270.29 14.63 270.582 14.565C270.872 14.501 271.158 14.681 271.224 14.971C271.289 15.261 271.107 15.549 270.817 15.614Z" fill="#F6FAF0"/>
<path d="M220.666 31.0271C220.666 31.3241 220.425 31.5641 220.128 31.5641C219.83 31.5641 219.592 31.3241 219.592 31.0271C219.592 30.7301 219.83 30.4891 220.128 30.4891C220.425 30.4891 220.666 30.7291 220.666 31.0271Z" fill="#F6FAF0"/>
<path d="M238.761 25.25C238.761 25.548 238.52 25.789 238.223 25.789C237.927 25.789 237.687 25.548 237.687 25.25C237.687 24.954 237.927 24.7141 238.223 24.7141C238.52 24.7141 238.761 24.954 238.761 25.25Z" fill="#F6FAF0"/>
<path d="M233.13 50.477C233.13 50.774 232.89 51.014 232.592 51.014C232.294 51.014 232.056 50.774 232.056 50.477C232.056 50.18 232.294 49.939 232.592 49.939C232.89 49.939 233.13 50.179 233.13 50.477Z" fill="#F6FAF0"/>
<path d="M222.458 60.346C222.168 60.411 221.88 60.231 221.813 59.942C221.747 59.652 221.929 59.363 222.217 59.298C222.506 59.233 222.794 59.4121 222.861 59.7021C222.928 59.9911 222.748 60.281 222.458 60.346Z" fill="#F6FAF0"/>
<path d="M196.61 60.4721C196.321 60.5381 196.033 60.3581 195.966 60.0681C195.9 59.7781 196.081 59.4911 196.371 59.4251C196.661 59.3591 196.947 59.5391 197.014 59.8281C197.081 60.1191 196.901 60.4071 196.61 60.4721Z" fill="#F6FAF0"/>
<path d="M154.259 48.84C154.259 49.137 154.018 49.378 153.723 49.378C153.425 49.378 153.185 49.137 153.185 48.84C153.185 48.544 153.425 48.303 153.723 48.303C154.018 48.303 154.259 48.544 154.259 48.84Z" fill="#F6FAF0"/>
<path d="M172.354 43.0661C172.354 43.3621 172.113 43.6031 171.818 43.6031C171.52 43.6031 171.28 43.3621 171.28 43.0661C171.28 42.7701 171.52 42.5291 171.818 42.5291C172.112 42.5291 172.354 42.7691 172.354 43.0661Z" fill="#F6FAF0"/>
<path d="M166.723 68.2901C166.723 68.5871 166.483 68.828 166.187 68.828C165.889 68.828 165.649 68.5871 165.649 68.2901C165.649 67.9941 165.889 67.7531 166.187 67.7531C166.482 67.7531 166.723 67.9941 166.723 68.2901Z" fill="#F6FAF0"/>
<path d="M182.681 15.5661C182.391 15.6321 182.105 15.4491 182.038 15.1601C181.974 14.8701 182.155 14.5831 182.445 14.5181C182.735 14.4521 183.021 14.6351 183.086 14.9231C183.152 15.2131 182.97 15.5011 182.681 15.5661Z" fill="#F6FAF0"/>
<path d="M156.833 15.614C156.543 15.679 156.257 15.497 156.193 15.207C156.127 14.918 156.308 14.63 156.598 14.565C156.888 14.501 157.173 14.681 157.24 14.971C157.305 15.261 157.123 15.549 156.833 15.614Z" fill="#F6FAF0"/>
<path d="M106.682 31.0271C106.682 31.3241 106.441 31.5641 106.146 31.5641C105.848 31.5641 105.608 31.3241 105.608 31.0271C105.608 30.7301 105.848 30.4891 106.146 30.4891C106.441 30.4891 106.682 30.7291 106.682 31.0271Z" fill="#F6FAF0"/>
<path d="M124.777 25.251C124.777 25.548 124.537 25.789 124.239 25.789C123.942 25.789 123.702 25.548 123.702 25.251C123.702 24.954 123.942 24.7141 124.239 24.7141C124.537 24.7141 124.777 24.954 124.777 25.251Z" fill="#F6FAF0"/>
<path d="M119.146 50.477C119.146 50.774 118.907 51.014 118.61 51.014C118.312 51.014 118.072 50.774 118.072 50.477C118.072 50.18 118.312 49.939 118.61 49.939C118.906 49.939 119.146 50.179 119.146 50.477Z" fill="#F6FAF0"/>
<path d="M108.474 60.346C108.184 60.411 107.896 60.231 107.83 59.942C107.764 59.652 107.946 59.363 108.235 59.298C108.525 59.233 108.811 59.4121 108.88 59.7021C108.943 59.9911 108.764 60.281 108.474 60.346Z" fill="#F6FAF0"/>
<path d="M82.6281 60.4721C82.3371 60.5381 82.0491 60.3581 81.9841 60.0681C81.9181 59.7781 82.0971 59.4911 82.3871 59.4251C82.6771 59.3591 82.9651 59.5391 83.0321 59.8281C83.0981 60.1191 82.9161 60.4071 82.6281 60.4721Z" fill="#F6FAF0"/>
<path d="M40.2752 48.84C40.2752 49.137 40.0342 49.378 39.7392 49.378C39.4412 49.378 39.2012 49.137 39.2012 48.84C39.2012 48.544 39.4412 48.303 39.7392 48.303C40.0332 48.303 40.2752 48.544 40.2752 48.84Z" fill="#F6FAF0"/>
<path d="M58.3692 43.0661C58.3692 43.3621 58.1302 43.6031 57.8332 43.6031C57.5352 43.6031 57.2952 43.3621 57.2952 43.0661C57.2952 42.7701 57.5352 42.5291 57.8332 42.5291C58.1302 42.5291 58.3692 42.7691 58.3692 43.0661Z" fill="#F6FAF0"/>
<path d="M52.7382 68.2901C52.7382 68.5871 52.5002 68.828 52.2022 68.828C51.9042 68.828 51.6642 68.5871 51.6642 68.2901C51.6642 67.9941 51.9042 67.7531 52.2022 67.7531C52.5002 67.7531 52.7382 67.9941 52.7382 68.2901Z" fill="#F6FAF0"/>
<path d="M68.6961 15.5661C68.4081 15.6321 68.1201 15.4491 68.0531 15.1601C67.9891 14.8701 68.1701 14.5831 68.4601 14.5181C68.7501 14.4521 69.0381 14.6351 69.1031 14.9231C69.1681 15.2131 68.9871 15.5011 68.6961 15.5661Z" fill="#F6FAF0"/>
<path d="M42.8512 15.614C42.5612 15.679 42.2732 15.497 42.2082 15.207C42.1432 14.918 42.3242 14.63 42.6142 14.565C42.9032 14.501 43.1912 14.681 43.2562 14.971C43.3222 15.261 43.1412 15.549 42.8512 15.614Z" fill="#F6FAF0"/>
<path d="M10.7932 25.251C10.7932 25.548 10.5532 25.789 10.2552 25.789C9.95818 25.789 9.71918 25.548 9.71918 25.251C9.71918 24.954 9.95818 24.7141 10.2552 24.7141C10.5532 24.7141 10.7932 24.954 10.7932 25.251Z" fill="#F6FAF0"/>
<path d="M5.16317 50.477C5.16317 50.774 4.92217 51.014 4.62517 51.014C4.32717 51.014 4.08917 50.774 4.08917 50.477C4.08917 50.18 4.32717 49.939 4.62517 49.939C4.92217 49.939 5.16317 50.179 5.16317 50.477Z" fill="#F6FAF0"/>
<path d="M17.8872 135.523C18.1772 135.588 18.4642 135.407 18.5312 135.118C18.5972 134.828 18.4182 134.54 18.1262 134.474C17.8382 134.408 17.5502 134.59 17.4832 134.878C17.4172 135.167 17.5972 135.455 17.8872 135.523Z" fill="#F6FAF0"/>
<path d="M60.2401 123.889C60.2401 124.185 60.4811 124.427 60.7761 124.427C61.0741 124.427 61.3121 124.186 61.3121 123.889C61.3121 123.591 61.0741 123.352 60.7761 123.352C60.4821 123.352 60.2401 123.592 60.2401 123.889Z" fill="#F6FAF0"/>
<path d="M42.1442 118.114C42.1442 118.41 42.3852 118.651 42.6822 118.651C42.9802 118.651 43.2182 118.41 43.2182 118.114C43.2182 117.817 42.9802 117.576 42.6822 117.576C42.3852 117.577 42.1442 117.817 42.1442 118.114Z" fill="#F6FAF0"/>
<path d="M47.7751 143.34C47.7751 143.637 48.0161 143.877 48.3131 143.877C48.6111 143.877 48.8491 143.637 48.8491 143.34C48.8491 143.044 48.6111 142.803 48.3131 142.803C48.0161 142.803 47.7751 143.044 47.7751 143.34Z" fill="#F6FAF0"/>
<path d="M41.4263 74.232C41.7163 74.296 42.0043 74.114 42.0693 73.825C42.1353 73.535 41.9543 73.248 41.6643 73.183C41.3723 73.117 41.0863 73.299 41.0193 73.589C40.9543 73.878 41.1363 74.165 41.4263 74.232Z" fill="#F6FAF0"/>
<path d="M31.8172 90.616C32.1062 90.68 32.3942 90.499 32.4612 90.209C32.5252 89.92 32.3422 89.633 32.0542 89.567C31.7642 89.503 31.4762 89.684 31.4112 89.973C31.3452 90.262 31.5272 90.55 31.8172 90.616Z" fill="#F6FAF0"/>
<path d="M57.6642 90.663C57.9542 90.728 58.2402 90.546 58.3072 90.258C58.3712 89.968 58.1892 89.68 57.9002 89.615C57.6122 89.549 57.3242 89.731 57.2592 90.021C57.1922 90.31 57.3742 90.597 57.6642 90.663Z" fill="#F6FAF0"/>
<path d="M107.817 106.075C107.817 106.372 108.057 106.613 108.355 106.613C108.652 106.613 108.893 106.372 108.893 106.075C108.893 105.779 108.652 105.539 108.355 105.539C108.057 105.539 107.817 105.779 107.817 106.075Z" fill="#F6FAF0"/>
<path d="M89.7222 100.301C89.7222 100.597 89.9622 100.838 90.2602 100.838C90.5572 100.838 90.7962 100.597 90.7962 100.301C90.7962 100.003 90.5572 99.763 90.2602 99.763C89.9622 99.762 89.7222 100.003 89.7222 100.301Z" fill="#F6FAF0"/>
<path d="M95.3522 125.526C95.3522 125.823 95.5932 126.064 95.8902 126.064C96.1882 126.064 96.4262 125.823 96.4262 125.526C96.4262 125.23 96.1882 124.989 95.8902 124.989C95.5932 124.989 95.3522 125.23 95.3522 125.526Z" fill="#F6FAF0"/>
<path d="M106.024 135.395C106.314 135.461 106.602 135.28 106.669 134.991C106.735 134.701 106.554 134.413 106.266 134.348C105.976 134.282 105.688 134.462 105.622 134.751C105.554 135.041 105.736 135.329 106.024 135.395Z" fill="#F6FAF0"/>
<path d="M131.871 135.523C132.161 135.588 132.449 135.407 132.515 135.118C132.581 134.828 132.4 134.54 132.11 134.474C131.82 134.408 131.534 134.59 131.468 134.878C131.401 135.167 131.581 135.455 131.871 135.523Z" fill="#F6FAF0"/>
<path d="M174.224 123.889C174.224 124.186 174.464 124.427 174.761 124.427C175.057 124.427 175.297 124.187 175.297 123.889C175.297 123.591 175.057 123.352 174.761 123.352C174.464 123.352 174.224 123.592 174.224 123.889Z" fill="#F6FAF0"/>
<path d="M156.129 118.114C156.129 118.41 156.367 118.652 156.667 118.652C156.962 118.652 157.203 118.41 157.203 118.114C157.203 117.817 156.962 117.576 156.667 117.576C156.367 117.577 156.129 117.817 156.129 118.114Z" fill="#F6FAF0"/>
<path d="M161.759 143.34C161.759 143.637 162 143.877 162.297 143.877C162.593 143.877 162.833 143.637 162.833 143.34C162.833 143.044 162.593 142.803 162.297 142.803C162 142.803 161.759 143.044 161.759 143.34Z" fill="#F6FAF0"/>
<path d="M155.408 74.232C155.698 74.296 155.986 74.114 156.053 73.825C156.117 73.535 155.936 73.248 155.646 73.183C155.356 73.117 155.07 73.299 155.003 73.589C154.939 73.878 155.12 74.165 155.408 74.232Z" fill="#F6FAF0"/>
<path d="M145.802 90.616C146.091 90.68 146.379 90.499 146.444 90.209C146.508 89.92 146.327 89.633 146.037 89.567C145.747 89.503 145.461 89.684 145.396 89.973C145.33 90.262 145.512 90.55 145.802 90.616Z" fill="#F6FAF0"/>
<path d="M171.648 90.663C171.938 90.728 172.224 90.546 172.291 90.258C172.355 89.968 172.173 89.68 171.884 89.615C171.594 89.549 171.306 89.731 171.241 90.021C171.177 90.31 171.357 90.597 171.648 90.663Z" fill="#F6FAF0"/>
<path d="M221.801 106.076C221.801 106.372 222.041 106.613 222.339 106.613C222.634 106.613 222.875 106.372 222.875 106.076C222.875 105.779 222.634 105.539 222.339 105.539C222.041 105.539 221.801 105.779 221.801 106.076Z" fill="#F6FAF0"/>
<path d="M203.704 100.301C203.704 100.597 203.944 100.838 204.244 100.838C204.539 100.838 204.78 100.597 204.78 100.301C204.78 100.003 204.539 99.763 204.244 99.763C203.944 99.762 203.704 100.003 203.704 100.301Z" fill="#F6FAF0"/>
<path d="M209.335 125.526C209.335 125.823 209.575 126.064 209.872 126.064C210.17 126.064 210.41 125.823 210.41 125.526C210.41 125.23 210.17 124.989 209.872 124.989C209.575 124.989 209.335 125.23 209.335 125.526Z" fill="#F6FAF0"/>
<path d="M220.008 135.395C220.298 135.461 220.586 135.28 220.653 134.991C220.717 134.701 220.538 134.413 220.248 134.348C219.96 134.282 219.67 134.462 219.605 134.751C219.538 135.041 219.719 135.329 220.008 135.395Z" fill="#F6FAF0"/>
<path d="M245.854 135.523C246.144 135.588 246.434 135.407 246.499 135.118C246.564 134.828 246.385 134.54 246.095 134.474C245.806 134.408 245.518 134.59 245.451 134.878C245.384 135.167 245.566 135.455 245.854 135.523Z" fill="#F6FAF0"/>
<path d="M288.208 123.889C288.208 124.185 288.448 124.427 288.744 124.427C289.041 124.427 289.282 124.186 289.282 123.889C289.282 123.591 289.041 123.352 288.744 123.352C288.448 123.352 288.208 123.592 288.208 123.889Z" fill="#F6FAF0"/>
<path d="M270.111 118.114C270.111 118.41 270.351 118.651 270.649 118.651C270.946 118.651 271.187 118.41 271.187 118.114C271.187 117.817 270.946 117.576 270.649 117.576C270.352 117.577 270.111 117.817 270.111 118.114Z" fill="#F6FAF0"/>
<path d="M275.743 143.34C275.743 143.637 275.982 143.877 276.279 143.877C276.577 143.877 276.817 143.637 276.817 143.34C276.817 143.044 276.577 142.803 276.279 142.803C275.982 142.803 275.743 143.044 275.743 143.34Z" fill="#F6FAF0"/>
<path d="M269.393 74.232C269.683 74.296 269.971 74.114 270.036 73.825C270.102 73.535 269.921 73.248 269.631 73.183C269.341 73.117 269.053 73.299 268.989 73.589C268.921 73.878 269.104 74.165 269.393 74.232Z" fill="#F6FAF0"/>
<path d="M259.784 90.616C260.074 90.68 260.361 90.499 260.428 90.209C260.492 89.92 260.311 89.633 260.021 89.567C259.731 89.503 259.444 89.684 259.379 89.973C259.313 90.262 259.494 90.55 259.784 90.616Z" fill="#F6FAF0"/>
<path d="M285.631 90.663C285.921 90.728 286.209 90.546 286.274 90.258C286.34 89.968 286.159 89.68 285.869 89.615C285.579 89.549 285.291 89.731 285.226 90.021C285.159 90.31 285.341 90.597 285.631 90.663Z" fill="#F6FAF0"/>
<path d="M317.688 100.301C317.688 100.597 317.928 100.838 318.226 100.838C318.523 100.838 318.764 100.597 318.764 100.301C318.764 100.003 318.523 99.763 318.226 99.763C317.929 99.762 317.688 100.003 317.688 100.301Z" fill="#F6FAF0"/>
<path d="M323.319 125.526C323.319 125.823 323.559 126.064 323.857 126.064C324.154 126.064 324.395 125.823 324.395 125.526C324.395 125.23 324.154 124.989 323.857 124.989C323.56 124.989 323.319 125.23 323.319 125.526Z" fill="#F6FAF0"/>
<path d="M310.596 213.4C310.306 213.465 310.018 213.284 309.951 212.995C309.885 212.706 310.064 212.417 310.354 212.351C310.646 212.286 310.932 212.466 310.999 212.756C311.066 213.046 310.885 213.334 310.596 213.4Z" fill="#F6FAF0"/>
<path d="M268.243 201.768C268.243 202.064 268.003 202.305 267.705 202.305C267.407 202.305 267.167 202.064 267.167 201.768C267.167 201.471 267.407 201.23 267.705 201.23C268.003 201.23 268.243 201.471 268.243 201.768Z" fill="#F6FAF0"/>
<path d="M286.338 195.992C286.338 196.29 286.097 196.53 285.8 196.53C285.504 196.53 285.264 196.29 285.264 195.992C285.264 195.695 285.504 195.455 285.8 195.455C286.097 195.455 286.338 195.695 286.338 195.992Z" fill="#F6FAF0"/>
<path d="M280.707 221.218C280.707 221.514 280.467 221.755 280.169 221.755C279.872 221.755 279.631 221.514 279.631 221.218C279.631 220.921 279.872 220.681 280.169 220.681C280.467 220.681 280.707 220.921 280.707 221.218Z" fill="#F6FAF0"/>
<path d="M287.056 152.108C286.766 152.173 286.478 151.991 286.413 151.702C286.348 151.413 286.529 151.125 286.819 151.06C287.108 150.994 287.396 151.176 287.461 151.466C287.527 151.756 287.346 152.043 287.056 152.108Z" fill="#F6FAF0"/>
<path d="M296.665 168.493C296.375 168.558 296.087 168.377 296.02 168.086C295.955 167.797 296.139 167.509 296.427 167.445C296.717 167.381 297.005 167.561 297.07 167.851C297.135 168.141 296.955 168.428 296.665 168.493Z" fill="#F6FAF0"/>
<path d="M270.817 168.54C270.528 168.606 270.24 168.424 270.175 168.135C270.111 167.844 270.29 167.557 270.582 167.492C270.872 167.428 271.158 167.608 271.224 167.898C271.289 168.187 271.107 168.476 270.817 168.54Z" fill="#F6FAF0"/>
<path d="M220.666 183.953C220.666 184.249 220.425 184.49 220.128 184.49C219.83 184.49 219.592 184.249 219.592 183.953C219.592 183.656 219.83 183.416 220.128 183.416C220.425 183.416 220.666 183.656 220.666 183.953Z" fill="#F6FAF0"/>
<path d="M238.761 178.179C238.761 178.475 238.52 178.716 238.223 178.716C237.927 178.716 237.687 178.475 237.687 178.179C237.687 177.881 237.927 177.641 238.223 177.641C238.52 177.641 238.761 177.881 238.761 178.179Z" fill="#F6FAF0"/>
<path d="M233.13 203.404C233.13 203.701 232.89 203.942 232.592 203.942C232.294 203.942 232.056 203.701 232.056 203.404C232.056 203.108 232.294 202.867 232.592 202.867C232.89 202.867 233.13 203.107 233.13 203.404Z" fill="#F6FAF0"/>
<path d="M222.458 213.273C222.168 213.339 221.88 213.158 221.813 212.869C221.747 212.579 221.929 212.292 222.217 212.226C222.506 212.16 222.794 212.34 222.861 212.63C222.928 212.919 222.748 213.207 222.458 213.273Z" fill="#F6FAF0"/>
<path d="M196.61 213.4C196.321 213.465 196.033 213.284 195.966 212.995C195.9 212.706 196.081 212.417 196.371 212.351C196.661 212.286 196.947 212.466 197.014 212.756C197.081 213.046 196.901 213.334 196.61 213.4Z" fill="#F6FAF0"/>
<path d="M154.259 201.768C154.259 202.064 154.018 202.305 153.723 202.305C153.425 202.305 153.185 202.064 153.185 201.768C153.185 201.471 153.425 201.23 153.723 201.23C154.018 201.23 154.259 201.471 154.259 201.768Z" fill="#F6FAF0"/>
<path d="M172.354 195.992C172.354 196.29 172.113 196.53 171.818 196.53C171.52 196.53 171.28 196.29 171.28 195.992C171.28 195.695 171.52 195.455 171.818 195.455C172.112 195.455 172.354 195.695 172.354 195.992Z" fill="#F6FAF0"/>
<path d="M166.723 221.218C166.723 221.514 166.483 221.755 166.187 221.755C165.889 221.755 165.649 221.514 165.649 221.218C165.649 220.921 165.889 220.681 166.187 220.681C166.482 220.681 166.723 220.921 166.723 221.218Z" fill="#F6FAF0"/>
<path d="M173.073 152.108C172.781 152.173 172.495 151.991 172.428 151.703C172.364 151.413 172.546 151.125 172.835 151.06C173.125 150.994 173.411 151.176 173.478 151.466C173.543 151.757 173.361 152.043 173.073 152.108Z" fill="#F6FAF0"/>
<path d="M182.681 168.493C182.391 168.558 182.105 168.377 182.038 168.086C181.974 167.797 182.155 167.509 182.445 167.445C182.735 167.381 183.021 167.561 183.086 167.851C183.152 168.141 182.97 168.428 182.681 168.493Z" fill="#F6FAF0"/>
<path d="M156.833 168.54C156.543 168.606 156.257 168.424 156.193 168.135C156.127 167.844 156.308 167.557 156.598 167.492C156.888 167.428 157.173 167.608 157.24 167.898C157.305 168.188 157.123 168.476 156.833 168.54Z" fill="#F6FAF0"/>
<path d="M106.682 183.953C106.682 184.249 106.441 184.49 106.146 184.49C105.848 184.49 105.608 184.249 105.608 183.953C105.608 183.656 105.848 183.416 106.146 183.416C106.441 183.416 106.682 183.656 106.682 183.953Z" fill="#F6FAF0"/>
<path d="M124.777 178.179C124.777 178.475 124.537 178.716 124.239 178.716C123.942 178.716 123.702 178.475 123.702 178.179C123.702 177.881 123.942 177.641 124.239 177.641C124.537 177.641 124.777 177.881 124.777 178.179Z" fill="#F6FAF0"/>
<path d="M119.146 203.404C119.146 203.701 118.907 203.942 118.61 203.942C118.312 203.942 118.072 203.701 118.072 203.404C118.072 203.108 118.312 202.867 118.61 202.867C118.906 202.867 119.146 203.107 119.146 203.404Z" fill="#F6FAF0"/>
<path d="M108.474 213.273C108.184 213.339 107.896 213.158 107.83 212.869C107.764 212.579 107.946 212.292 108.235 212.226C108.525 212.16 108.811 212.34 108.88 212.63C108.943 212.919 108.764 213.207 108.474 213.273Z" fill="#F6FAF0"/>
<path d="M82.6281 213.4C82.3371 213.465 82.0491 213.284 81.9841 212.995C81.9181 212.706 82.0971 212.417 82.3871 212.351C82.6771 212.286 82.9651 212.466 83.0321 212.756C83.0981 213.046 82.9161 213.334 82.6281 213.4Z" fill="#F6FAF0"/>
<path d="M40.2752 201.768C40.2752 202.064 40.0342 202.305 39.7392 202.305C39.4412 202.305 39.2012 202.064 39.2012 201.768C39.2012 201.471 39.4412 201.23 39.7392 201.23C40.0332 201.23 40.2752 201.471 40.2752 201.768Z" fill="#F6FAF0"/>
<path d="M58.3692 195.992C58.3692 196.29 58.1302 196.53 57.8332 196.53C57.5352 196.53 57.2952 196.29 57.2952 195.992C57.2952 195.695 57.5352 195.455 57.8332 195.455C58.1302 195.455 58.3692 195.695 58.3692 195.992Z" fill="#F6FAF0"/>
<path d="M52.7382 221.218C52.7382 221.514 52.5002 221.755 52.2022 221.755C51.9042 221.755 51.6642 221.514 51.6642 221.218C51.6642 220.921 51.9042 220.681 52.2022 220.681C52.5002 220.681 52.7382 220.921 52.7382 221.218Z" fill="#F6FAF0"/>
<path d="M59.0891 152.108C58.7991 152.173 58.5111 151.991 58.4461 151.703C58.3801 151.413 58.5621 151.125 58.8511 151.06C59.1411 150.994 59.4291 151.176 59.4941 151.466C59.5611 151.756 59.3791 152.043 59.0891 152.108Z" fill="#F6FAF0"/>
<path d="M68.6961 168.493C68.4081 168.558 68.1201 168.377 68.0531 168.086C67.9891 167.797 68.1701 167.509 68.4601 167.445C68.7501 167.381 69.0381 167.561 69.1031 167.851C69.1681 168.141 68.9871 168.428 68.6961 168.493Z" fill="#F6FAF0"/>
<path d="M42.8512 168.54C42.5612 168.606 42.2732 168.424 42.2082 168.135C42.1432 167.844 42.3242 167.557 42.6142 167.492C42.9032 167.428 43.1912 167.608 43.2562 167.898C43.3222 168.188 43.1412 168.476 42.8512 168.54Z" fill="#F6FAF0"/>
<path d="M10.7932 178.179C10.7932 178.475 10.5532 178.716 10.2552 178.716C9.95818 178.716 9.71918 178.475 9.71918 178.179C9.71918 177.881 9.95818 177.641 10.2552 177.641C10.5532 177.641 10.7932 177.881 10.7932 178.179Z" fill="#F6FAF0"/>
<path d="M5.16317 203.404C5.16317 203.701 4.92217 203.942 4.62517 203.942C4.32717 203.942 4.08917 203.701 4.08917 203.404C4.08917 203.108 4.32717 202.867 4.62517 202.867C4.92217 202.867 5.16317 203.107 5.16317 203.404Z" fill="#F6FAF0"/>
</g>
<path d="M120.101 137.135C120.101 162.901 99.2132 183.788 73.4482 183.788C47.6822 183.788 26.7942 162.901 26.7942 137.135C26.7942 111.368 47.6832 90.481 73.4482 90.481C99.2132 90.481 120.101 111.368 120.101 137.135Z" fill="#E0E1E2"/>
<path d="M120.101 137.135C120.101 162.901 99.2132 183.788 73.4482 183.788C47.6822 183.788 26.7942 162.901 26.7942 137.135C26.7942 111.368 47.6832 90.481 73.4482 90.481C99.2132 90.481 120.101 111.368 120.101 137.135Z" fill="#E6E7E8"/>
<path opacity="0.4" d="M48.8552 101.513C42.0252 106.1 37.0882 113.221 34.0982 120.804C33.2912 122.85 32.6262 124.953 32.0102 127.063C31.2962 129.506 30.6922 131.984 30.3072 134.501C30.2302 135.002 30.1632 135.506 30.1052 136.011C30.4082 136.48 30.7402 136.933 31.0922 137.366C33.4772 140.297 36.7182 142.538 40.1662 144.047C41.6192 144.683 43.1632 145.221 44.7452 145.575C43.5662 136.724 44.0692 127.599 46.0072 118.889C47.7782 110.935 51.1472 102.838 57.6242 97.588C54.4982 98.372 51.5292 99.717 48.8552 101.513Z" fill="#E6E7E8"/>
<path opacity="0.3" d="M73.4472 90.481C65.9242 90.481 58.8212 92.264 52.5302 95.425C58.1202 95.854 63.4972 98.241 67.9492 101.659C73.8872 106.219 78.5602 112.576 81.0672 119.637C82.2832 123.058 83.0202 126.701 82.9562 130.344C82.8762 134.8 81.9882 139.447 79.5122 143.228C78.5162 144.752 77.2972 146.073 75.7892 147.105C74.2852 148.135 72.6102 148.895 70.8782 149.452C67.2802 150.611 63.4822 151.011 59.7262 151.226C52.6582 151.632 45.1742 152.421 38.4572 149.611C35.3092 148.295 32.6582 146.077 31.0082 143.07C29.3222 140.004 28.4642 136.526 27.9922 133.08C27.7812 131.548 27.6522 130.001 27.6012 128.451C27.0732 131.265 26.7922 134.165 26.7922 137.133C26.7922 162.899 47.6812 183.786 73.4462 183.786C99.2122 183.786 120.099 162.899 120.099 137.133C120.101 111.368 99.2132 90.481 73.4472 90.481Z" fill="#9C9EA1"/>
<path d="M106.948 125.05C92.3983 124.124 77.7443 124.602 63.2343 125.939C55.4893 126.653 47.7683 127.652 40.1093 129.013C37.2733 129.518 34.5643 130.411 31.8093 131.233C30.2803 131.689 28.6623 132.195 27.0333 132.445C27.0113 132.668 26.9863 132.889 26.9673 133.113C35.1503 130.413 43.7983 129.201 52.3353 128.263C68.2013 126.52 84.1673 125.848 100.09 127.24C106.553 127.805 113.027 128.538 119.46 129.405C119.278 128.312 119.057 127.232 118.799 126.167C114.855 125.655 110.891 125.301 106.948 125.05Z" fill="#E6E7E8"/>
<path d="M58.4262 89.778H53.3692C53.3692 89.778 50.1602 90.552 47.0582 93.985L48.9952 97.396C48.9952 97.396 56.9122 91.328 68.8702 100.85C80.8282 110.372 87.2892 122.211 87.5822 135.422C87.8762 148.634 78.1712 161.332 78.1712 161.332L84.9322 161.54C84.9322 161.54 95.2222 149.123 94.0052 133.07C92.7872 117.015 87.3602 111.036 80.6072 103.618C73.8532 96.199 58.4262 89.778 58.4262 89.778Z" fill="#C8C9CB"/>
<path d="M69.7552 90.316C89.8732 96.281 104.552 114.903 104.552 136.959C104.552 161.847 85.8612 182.368 61.7512 185.254C63.6662 185.485 65.6152 185.605 67.5932 185.605C94.4602 185.605 116.241 163.826 116.241 136.959C116.241 117.589 104.919 100.864 88.5312 93.039C83.4482 91.236 77.9772 90.252 72.2742 90.252C71.4302 90.252 70.5912 90.274 69.7552 90.316Z" fill="#616264"/>
<path d="M111.91 136.306C109.566 137.308 106.747 137.29 104.542 136.006C104.548 136.323 104.552 136.64 104.552 136.959C104.552 161.847 85.8612 182.368 61.7512 185.254C63.6662 185.485 65.6152 185.605 67.5932 185.605C94.4602 185.605 116.241 163.826 116.241 136.959C116.241 135.359 116.161 133.777 116.012 132.216C115.114 133.975 113.843 135.482 111.91 136.306Z" fill="#003A60"/>
<path d="M48.5952 182.696C50.9812 183.056 53.4202 183.243 55.9052 183.243C56.7522 183.243 57.5912 183.22 58.4262 183.178C56.8842 182.722 55.3732 182.19 53.9002 181.588C52.1662 182.052 50.3962 182.425 48.5952 182.696Z" fill="#44C8F5"/>
<path d="M55.9042 183.327C53.4562 183.327 50.9912 183.142 48.5822 182.779L48.0262 182.695L48.5822 182.611C50.3482 182.345 52.1282 181.972 53.8772 181.505L53.9052 181.498L53.9302 181.509C55.4052 182.111 56.9252 182.645 58.4492 183.096L58.9252 183.236L58.4312 183.262C57.5922 183.305 56.7412 183.327 55.9042 183.327ZM49.1632 182.693C51.3882 183.002 53.6512 183.159 55.9042 183.159C56.5742 183.159 57.2532 183.144 57.9272 183.117C56.5652 182.699 55.2102 182.215 53.8932 181.678C52.3312 182.095 50.7432 182.435 49.1632 182.693Z" fill="white"/>
<path d="M54.4403 181.441C54.2603 181.492 54.0803 181.539 53.9003 181.587C55.3743 182.189 56.8843 182.722 58.4263 183.177C59.5433 183.121 60.6523 183.023 61.7513 182.892C59.2503 182.593 56.8083 182.105 54.4403 181.441Z" fill="#44C8F5"/>
<path d="M53.9003 181.587C54.0803 181.539 54.2603 181.492 54.4403 181.441C53.3903 181.148 52.3583 180.817 51.3383 180.456C52.1783 180.858 53.0323 181.234 53.9003 181.587Z" fill="#44C8F5"/>
<path d="M66.1352 182.323C64.6562 182.279 63.1933 182.167 61.7513 181.993C61.2703 182.051 60.7903 182.101 60.3073 182.146C61.7603 182.276 63.2292 182.345 64.7162 182.345C65.1902 182.345 65.6632 182.336 66.1352 182.323Z" fill="#E6E7E8"/>
<path d="M88.7753 89.867C88.7753 90.249 88.7773 90.632 88.7823 91.015C106 98.506 118.044 115.663 118.044 135.638C118.044 162.023 97.0373 183.501 70.8383 184.263C71.3163 184.277 71.7943 184.285 72.2763 184.285C99.1443 184.285 120.924 162.507 120.924 135.638C120.923 114.563 107.519 96.624 88.7753 89.867Z" fill="#E6E7E8"/>
<path opacity="0.3" d="M117.838 140.091C115.631 164.399 95.5453 183.543 70.8373 184.261C71.3153 184.275 71.7933 184.283 72.2753 184.283C98.0483 184.283 119.138 164.239 120.811 138.889C119.833 139.32 118.839 139.716 117.838 140.091Z" fill="#9C9EA1"/>
<path d="M60.3072 182.146C59.8262 182.101 59.3472 182.051 58.8722 181.993C57.7732 182.126 56.6672 182.223 55.5472 182.28C59.9372 183.582 64.5842 184.283 69.3982 184.283C69.8792 184.283 70.3592 184.275 70.8382 184.261C66.5372 184.135 62.3772 183.451 58.4272 182.28C59.0552 182.248 59.6822 182.202 60.3072 182.146Z" fill="#E6E7E8"/>
<path d="M118.043 135.637C118.043 115.662 105.999 98.505 88.7813 91.014C88.7873 91.726 88.8013 92.438 88.8253 93.15C88.8783 93.187 88.9293 93.229 88.9963 93.263C102.809 100.289 115.705 116.934 115.705 134.397C115.705 161.264 94.4603 182.344 67.5933 182.344C67.1073 182.344 66.6193 182.336 66.1353 182.322C65.6633 182.335 65.1903 182.344 64.7163 182.344C63.2293 182.344 61.7603 182.276 60.3073 182.145C59.6823 182.201 59.0553 182.247 58.4263 182.279C62.3763 183.45 66.5363 184.134 70.8373 184.26C97.0363 183.5 118.043 162.022 118.043 135.637Z" fill="#B7B9BB"/>
<path d="M95.7223 122.347C93.4353 113.524 93.0963 105.979 94.9623 105.495L124.124 97.934C122.256 98.418 122.598 105.967 124.886 114.788C127.173 123.613 130.539 130.372 132.409 129.889L103.248 137.448C101.377 137.931 98.0083 131.173 95.7223 122.347Z" fill="#C1C3C4"/>
<path opacity="0.3" d="M112.09 133.876C111.554 132.803 111.249 131.62 111.022 130.446C110.766 129.128 110.613 127.791 110.478 126.455C110.349 125.164 110.246 123.87 110.086 122.581C110.018 122.022 109.938 121.465 109.828 120.912C109.695 120.243 109.506 119.583 109.334 118.923C109.028 117.742 108.699 116.565 108.29 115.414C108.077 114.821 107.847 114.236 107.587 113.662C107.458 113.376 107.323 113.092 107.182 112.81C107.057 112.561 106.939 112.304 106.757 112.091C106.118 111.35 105.38 110.701 104.723 109.979C104.107 109.305 103.567 108.588 103.351 107.685C102.938 105.96 103.806 104.317 105.068 103.184C105.244 103.026 105.429 102.875 105.621 102.73L94.9632 105.494C93.0972 105.978 93.4362 113.523 95.7232 122.346C98.0092 131.172 101.378 137.93 103.249 137.448L112.794 134.973C112.519 134.636 112.285 134.262 112.09 133.876Z" fill="#9C9EA1"/>
<path opacity="0.4" d="M128.572 125.561C130.52 128.957 131.603 130.095 132.409 129.888L103.248 137.448C102.441 137.656 101.361 136.522 99.4163 133.136L128.572 125.561Z" fill="#C1C3C4"/>
<path d="M122.963 103.449C123.008 104.389 123.106 105.42 123.249 106.53L94.0853 114.09C93.9423 112.983 93.8463 111.95 93.7993 111.011L122.963 103.449Z" fill="#C1C3C4"/>
<path d="M120.365 98.909L124.124 97.934C122.256 98.418 122.598 105.967 124.886 114.788C127.173 123.613 130.539 130.372 132.409 129.889L128.538 130.893C126.549 128.412 124.113 122.596 122.296 115.59C120.426 108.373 119.742 101.94 120.365 98.909Z" fill="#C1C3C4"/>
<path d="M94.9623 105.495L96.3453 105.137C95.2313 107.389 95.7083 114.057 97.6713 121.63C99.8233 129.929 103.006 136.411 105.1 136.967L103.248 137.447C101.377 137.931 98.0083 131.172 95.7223 122.346C93.4353 113.524 93.0963 105.979 94.9623 105.495Z" fill="#C1C3C4"/>
<path d="M89.0793 109.335L93.5613 108.174C91.9473 108.593 92.2393 115.112 94.2183 122.739C96.1933 130.364 99.1053 136.207 100.72 135.788L96.0393 137.001C94.2923 134.326 92.3503 129.526 90.8923 123.888C89.3373 117.885 88.7163 112.453 89.0793 109.335Z" fill="#C1C3C4"/>
<path d="M128.893 113.751C131.402 123.429 135.098 130.846 137.148 130.315C139.2 129.783 138.825 121.505 136.316 111.826C133.806 102.146 130.11 94.729 128.061 95.261C126.011 95.79 126.383 104.07 128.893 113.751Z" fill="#1A1A1C"/>
<path opacity="0.4" d="M129.427 113.612C131.573 121.897 134.738 128.245 136.493 127.791C138.248 127.335 137.93 120.25 135.779 111.964C133.631 103.677 130.468 97.33 128.713 97.784C126.958 98.238 127.278 105.325 129.427 113.612Z" fill="#ADAFB2"/>
<path d="M123.521 96.436L128.06 95.261C126.01 95.79 126.382 104.07 128.892 113.751C131.401 123.429 135.097 130.846 137.147 130.315L132.609 131.491C130.561 132.022 126.863 124.605 124.355 114.925C121.845 105.246 121.472 96.967 123.521 96.436Z" fill="#1A1A1C"/>
<g opacity="0.4">
<path d="M128.713 97.785C129.89 97.48 131.694 100.225 133.401 104.553L127.902 105.962C127.296 101.357 127.542 98.088 128.713 97.785Z" fill="#ADAFB2"/>
<path opacity="0.5" d="M137.037 117.824C137.569 121.017 137.855 124.395 137.412 126.342L134.979 126.966C133.751 125.681 132.255 122.377 131.169 119.325L137.037 117.824Z" fill="#ADAFB2"/>
<path d="M137.444 120.808C137.56 121.905 137.619 122.906 137.623 123.789L133.54 124.806C133.115 124.03 132.68 123.121 132.248 122.102L137.444 120.808Z" fill="#ADAFB2"/>
<path opacity="0.4" d="M128.713 97.785C130.317 97.368 133.103 102.647 135.211 109.893L128.91 111.481C127.239 104.142 127.112 98.2 128.713 97.785Z" fill="#ADAFB2"/>
</g>
<path d="M127.646 100.208C129.269 102.555 131.433 107.165 132.873 112.717C134.312 118.271 134.658 123.349 134.383 126.191C132.762 123.842 130.867 119.162 129.427 113.611C127.987 108.057 127.369 103.049 127.646 100.208Z" fill="#81A3C2"/>
<path d="M127.646 100.208C127.868 100.525 128.098 100.892 128.335 101.292C128.307 104.231 128.936 108.618 130.176 113.416C131.421 118.212 133.005 122.354 134.458 124.906C134.442 125.373 134.42 125.802 134.382 126.191C132.761 123.842 130.866 119.162 129.426 113.611C127.987 108.057 127.369 103.049 127.646 100.208Z" fill="#81A3C2"/>
<g opacity="0.4">
<path opacity="0.5" d="M126.769 101.034C126.803 101.88 126.877 102.8 126.989 103.779L122.442 104.847C122.333 103.867 122.26 102.945 122.226 102.102L126.769 101.034Z" fill="#ADAFB2"/>
<path opacity="0.4" d="M133.387 126.243C134.812 129.004 136.168 130.568 137.148 130.315L132.61 131.491C131.62 131.748 130.242 130.142 128.802 127.321L133.387 126.243Z" fill="#ADAFB2"/>
</g>
<path d="M91.8123 105.634L95.2773 104.738C93.2343 105.267 93.5043 113.134 95.8833 122.309C98.2623 131.481 101.845 138.489 103.889 137.959L100.428 138.854C98.3813 139.386 94.7973 132.38 92.4193 123.204C90.0423 114.032 89.7693 106.165 91.8123 105.634Z" fill="#1A1A1C"/>
<path d="M95.2763 104.738C95.3893 104.708 95.7423 104.879 95.8403 105.267C94.0063 105.743 94.3813 113.511 96.6123 122.118C98.9183 131.016 102.356 137.68 104.312 137.172C104.395 137.488 104.088 137.907 103.887 137.959C101.843 138.489 98.2603 131.481 95.8813 122.309C93.5033 113.133 93.2343 105.267 95.2763 104.738Z" fill="#1A1718"/>
<g opacity="0.4">
<path opacity="0.5" d="M90.6033 107.881L94.0533 107.068C93.7833 108.858 93.8863 111.546 94.3423 114.738L90.8653 115.555C90.4133 112.346 90.3223 109.653 90.6033 107.881Z" fill="#ADAFB2"/>
<path opacity="0.5" d="M90.4423 110.158L93.9073 109.344C93.9073 110.18 93.9513 111.107 94.0363 112.108L90.5673 112.923C90.4823 111.918 90.4403 110.991 90.4423 110.158Z" fill="#ADAFB2"/>
<path opacity="0.4" d="M100.439 134.573C101.733 136.904 102.968 138.198 103.889 137.959L100.428 138.854C99.4953 139.097 98.2433 137.774 96.9343 135.396L100.439 134.573Z" fill="#ADAFB2"/>
</g>
<path d="M104.552 134.596C104.552 112.542 89.8733 93.918 69.7553 87.953C66.2823 88.13 56.6143 88.909 53.3693 89.778C72.8883 95.203 89.9313 114.232 89.9313 134.596C89.9313 156.904 74.9153 175.704 54.4393 181.441C56.8073 182.105 59.2503 182.593 61.7513 182.892C85.8603 180.004 104.552 159.484 104.552 134.596Z" fill="#E6E7E8"/>
<path d="M100.325 140.803C98.0042 138.964 96.4532 136.184 95.2202 133.542C93.6382 130.157 92.7322 126.544 91.5842 123.002C90.8332 120.692 90.0062 118.399 88.9222 116.222C87.8632 114.093 86.5602 112.067 85.1172 110.174C82.2242 106.372 78.6652 103.112 74.8422 100.264C73.1542 99.006 71.4092 97.842 69.6442 96.698C67.9672 95.611 66.2752 94.538 64.5232 93.574C62.6872 92.564 60.7792 91.635 58.7672 91.026C57.6642 90.692 56.5162 90.444 55.3632 90.383C74.0352 96.508 89.9322 114.929 89.9322 134.596C89.9322 156.904 74.9162 175.704 54.4402 181.441C56.8082 182.105 59.2512 182.593 61.7522 182.892C83.3822 180.3 101.145 169.013 103.971 142.12C102.629 142.195 101.367 141.63 100.325 140.803Z" fill="#E6E7E8"/>
<path opacity="0.3" d="M92.4352 155.014C90.0062 155.073 87.5862 155.27 85.1812 155.584C79.1902 168.088 68.0162 177.636 54.4402 181.44C56.8082 182.104 59.2512 182.592 61.7522 182.891C79.4142 180.775 94.4962 172.859 100.974 155.383C98.1412 155.075 95.2872 154.945 92.4352 155.014Z" fill="#9C9EA1"/>
<path d="M73.4472 156.552C51.2972 156.552 33.3402 158.784 33.3402 161.538V224.773C33.3402 227.527 51.2972 229.759 73.4472 229.759C95.5982 229.759 113.552 227.526 113.552 224.773V161.538C113.553 158.785 95.5992 156.552 73.4472 156.552Z" fill="#E0E1E2"/>
<path d="M73.4472 161.332C51.2972 161.332 33.3402 163.564 33.3402 166.318V171.624C33.3402 168.87 51.2972 166.638 73.4472 166.638C95.5982 166.638 113.552 168.87 113.552 171.624V166.318C113.553 163.564 95.5992 161.332 73.4472 161.332Z" fill="#B8BABC"/>
<path d="M41.4012 188.803V227.773C48.1812 228.891 58.6622 229.643 70.5812 229.747V188.803H41.4012Z" fill="#606264"/>
<path d="M53.3692 188.803H41.4012V227.773C48.1812 228.891 58.6622 229.643 70.5812 229.747V226.605C63.7022 226.264 57.7592 225.694 53.3692 224.969V188.803Z" fill="#606264"/>
<path d="M41.4012 227.772C48.1812 228.89 58.6622 229.642 70.5812 229.746V226.604C63.7022 226.263 57.7592 225.693 53.3692 224.968L41.4012 227.772Z" fill="#2D3031"/>
<path d="M53.3693 188.803V224.969C57.7593 225.694 63.7023 226.264 70.5813 226.605V188.803H53.3693Z" fill="#201F20"/>
<path d="M94.2712 167.358H93.9392V229.048H94.2712V167.358Z" fill="#B8BABC"/>
<path d="M113.535 180.55C87.8963 177.826 67.4633 177.751 54.8343 178.167C41.1553 178.618 33.4413 179.726 33.3653 179.736L33.3173 179.408C33.3933 179.397 41.1253 178.285 54.8223 177.834C67.4633 177.417 87.9143 177.493 113.571 180.22L113.535 180.55Z" fill="#B8BABC"/>
<path opacity="0.54" d="M73.4473 156.552C71.7213 156.552 70.0223 156.565 68.3523 156.592C68.3963 156.596 68.4403 156.599 68.4833 156.602C71.7233 156.904 75.0553 157.46 77.9963 158.917C79.3343 159.579 80.5803 160.449 81.5733 161.57C82.7483 162.9 86.5443 165.441 87.0053 167.142C88.0533 171.013 87.0053 220.202 86.5783 229.486C102.278 228.811 113.553 226.956 113.553 224.774V161.538C113.553 158.785 95.5993 156.552 73.4473 156.552Z" fill="#A3A6A8"/>
<path opacity="0.54" d="M102.768 158.137V228.176C109.459 227.284 113.553 226.088 113.553 224.774V161.538C113.553 160.223 109.457 159.028 102.768 158.137Z" fill="#A3A6A8"/>
<path d="M34.0552 186.954C34.1952 185 34.3692 183.051 34.4732 181.096C34.5742 179.257 35.2432 162.083 36.9342 161.331C44.1242 158.136 85.4212 157.19 90.7082 157.108C91.0442 157.104 91.3772 157.101 91.7132 157.097C86.2342 156.748 80.0252 156.551 73.4472 156.551C51.2972 156.551 33.3402 158.783 33.3402 161.537V197.324C33.5622 193.867 33.8052 190.409 34.0552 186.954Z" fill="white"/>
<path d="M141.747 194.195H90.0773V229.486H141.747V194.195Z" fill="#8F9194"/>
<path d="M120.327 194.195H90.0773V229.486H120.327V194.195Z" fill="white"/>
<path d="M143.561 191.906H88.2653V195.773H143.561V191.906Z" fill="#B6B8BA"/>
<path d="M143.56 191.906H120.327V195.773H143.56V191.906Z" fill="#9FA2A3"/>
<path d="M99.2472 200.278V199.32H92.4532V206.113H94.5232V200.278H99.2472Z" fill="#65686A"/>
<path d="M99.2482 200.278H94.5232V206.113H99.2482V200.278Z" fill="#3E4143"/>
<path d="M108.599 200.278V199.32H101.807V206.113H103.875V200.278H108.599Z" fill="#65686A"/>
<path d="M108.599 200.278H103.875V206.113H108.599V200.278Z" fill="#3E4143"/>
<path d="M117.952 200.278V199.32H111.16V206.113H113.227V200.278H117.952Z" fill="#65686A"/>
<path d="M117.953 200.278H113.227V206.113H117.953V200.278Z" fill="#3E4143"/>
<path d="M99.2472 212.799V211.84H92.4532V218.634H94.5232V212.799H99.2472Z" fill="#65686A"/>
<path d="M99.2482 212.799H94.5232V218.634H99.2482V212.799Z" fill="#3E4143"/>
<path d="M108.599 212.799V211.84H101.807V218.634H103.875V212.799H108.599Z" fill="#65686A"/>
<path d="M108.599 212.799H103.875V218.634H108.599V212.799Z" fill="#3E4143"/>
<path d="M117.952 212.799V211.84H111.16V218.634H113.227V212.799H117.952Z" fill="#65686A"/>
<path d="M117.953 212.799H113.227V218.634H117.953V212.799Z" fill="#3E4143"/>
<defs>
<linearGradient id="paint0_linear_19_593" x1="164.241" y1="217.569" x2="164.241" y2="-41.5602" gradientUnits="userSpaceOnUse">
<stop offset="0.105" stop-color="#FFBC19"/>
<stop offset="0.385" stop-color="#283548" stop-opacity="0.5"/>
<stop offset="1" stop-color="#1F2D40" stop-opacity="0"/>
</linearGradient>
</defs>
</svg>
