<svg width="100" height="117" viewBox="0 0 100 117" fill="none" xmlns="http://www.w3.org/2000/svg">
<path d="M0.144827 0.534153C0.891668 0.534153 1.63855 0.534153 2.38539 0.534153C11.799 0.534153 21.2154 0.568134 30.629 0.500172C32.2505 0.488846 33.3722 1.03537 34.4569 2.17089C39.381 7.31896 44.3675 12.4047 49.3313 17.5132C49.4591 17.6434 49.6067 17.7567 50.0213 18.1191C51.1402 16.9185 52.2306 15.7093 53.3608 14.5398C57.5891 10.162 61.8146 5.78416 66.0884 1.45163C66.5399 0.992892 67.3009 0.585124 67.9199 0.582292C78.1855 0.539817 88.4509 0.562471 98.7165 0.579461C98.9891 0.579461 99.2617 0.641759 100 0.729542C88.7207 12.3368 77.6715 23.7061 66.4973 35.2057C77.5749 46.6232 88.6213 58.0068 99.9602 69.6905C99.114 69.7952 98.6483 69.9 98.1826 69.9C88.2493 69.917 78.3132 69.9057 68.3799 69.9538C67.0055 69.9595 66.2274 69.1807 65.3983 68.3256C60.5367 63.3134 55.6695 58.3098 50.8022 53.3033C50.541 53.0343 50.257 52.7879 49.9021 52.4509C49.4477 52.8785 48.9962 53.2693 48.5787 53.6969C43.632 58.7572 38.7079 63.8401 33.7186 68.8608C33.1847 69.396 32.2817 69.8575 31.5462 69.8632C21.613 69.9283 11.6769 69.9113 1.74361 69.9057C1.28926 69.9057 0.834893 69.8547 0.235717 69.6112C11.0124 57.9445 22.1724 46.7054 33.2415 35.1973C22.1127 23.7344 11.0578 12.3424 0 0.953248C0.0482749 0.814494 0.0965525 0.675739 0.144827 0.534153Z" fill="black"/>
<path d="M49.9339 116.415C33.989 116.415 18.0441 116.415 2.10204 116.415C0.0773306 116.415 0.0716762 116.412 0.0688365 114.398C0.0659968 107.9 0.0972085 101.401 0.0432542 94.9049C0.0318955 93.5598 0.449334 93.1181 1.82091 93.1181C33.6142 93.1322 65.4074 93.1096 97.2006 93.0926C97.5329 93.0926 97.8651 93.135 98.1917 93.1181C99.356 93.0529 99.7422 93.5853 99.7337 94.7321C99.6939 100.9 99.7138 107.07 99.7138 113.237C99.7138 115.356 98.6385 116.415 96.4879 116.415C80.9689 116.415 65.45 116.415 49.931 116.415H49.9339Z" fill="#FFAF00"/>
</svg>
