<svg width="197" height="212" viewBox="0 0 197 212" fill="none" xmlns="http://www.w3.org/2000/svg">
<mask id="path-1-inside-1_146_270" fill="white">
<path d="M144.403 147.686H51.5971C49.6136 147.686 48 146.073 48 144.089V26.5971C48 24.6136 49.6136 23 51.5971 23H144.403C146.386 23 148 24.6136 148 26.5971V144.089C148 146.073 146.386 147.686 144.403 147.686ZM51.5971 24.4388C50.4072 24.4388 49.4388 25.4069 49.4388 26.5971V144.089C49.4388 145.279 50.4072 146.247 51.5971 146.247H144.403C145.593 146.247 146.561 145.279 146.561 144.089V26.5971C146.561 25.4069 145.593 24.4388 144.403 24.4388H51.5971Z"/>
</mask>
<path d="M144.403 147.686H51.5971C49.6136 147.686 48 146.073 48 144.089V26.5971C48 24.6136 49.6136 23 51.5971 23H144.403C146.386 23 148 24.6136 148 26.5971V144.089C148 146.073 146.386 147.686 144.403 147.686ZM51.5971 24.4388C50.4072 24.4388 49.4388 25.4069 49.4388 26.5971V144.089C49.4388 145.279 50.4072 146.247 51.5971 146.247H144.403C145.593 146.247 146.561 145.279 146.561 144.089V26.5971C146.561 25.4069 145.593 24.4388 144.403 24.4388H51.5971Z" fill="#424B57"/>
<path d="M144.403 143.686H51.5971V151.686H144.403V143.686ZM51.5971 143.686C51.8228 143.686 52 143.863 52 144.089H44C44 148.282 47.4045 151.686 51.5971 151.686V143.686ZM52 144.089V26.5971H44V144.089H52ZM52 26.5971C52 26.8228 51.8228 27 51.5971 27V19C47.4045 19 44 22.4045 44 26.5971H52ZM51.5971 27H144.403V19H51.5971V27ZM144.403 27C144.177 27 144 26.8228 144 26.5971H152C152 22.4045 148.595 19 144.403 19V27ZM144 26.5971V144.089H152V26.5971H144ZM144 144.089C144 143.863 144.177 143.686 144.403 143.686V151.686C148.595 151.686 152 148.282 152 144.089H144ZM51.5971 20.4388C48.1983 20.4388 45.4388 23.1975 45.4388 26.5971H53.4388C53.4388 27.6164 52.616 28.4388 51.5971 28.4388V20.4388ZM45.4388 26.5971V144.089H53.4388V26.5971H45.4388ZM45.4388 144.089C45.4388 147.489 48.1983 150.247 51.5971 150.247V142.247C52.616 142.247 53.4388 143.07 53.4388 144.089H45.4388ZM51.5971 150.247H144.403V142.247H51.5971V150.247ZM144.403 150.247C147.802 150.247 150.561 147.488 150.561 144.089H142.561C142.561 143.07 143.384 142.247 144.403 142.247V150.247ZM150.561 144.089V26.5971H142.561V144.089H150.561ZM150.561 26.5971C150.561 23.1978 147.802 20.4388 144.403 20.4388V28.4388C143.384 28.4388 142.561 27.6161 142.561 26.5971H150.561ZM144.403 20.4388H51.5971V28.4388H144.403V20.4388Z" fill="#424B57" mask="url(#path-1-inside-1_146_270)"/>
<mask id="path-3-inside-2_146_270" fill="white">
<path d="M142.964 113.898H53.0359V115.337H142.964V113.898Z"/>
</mask>
<path d="M142.964 113.898H53.0359V115.337H142.964V113.898Z" fill="#424B57"/>
<path d="M53.0359 113.898V109.898H49.0359V113.898H53.0359ZM142.964 113.898H146.964V109.898H142.964V113.898ZM142.964 115.337V119.337H146.964V115.337H142.964ZM53.0359 115.337H49.0359V119.337H53.0359V115.337ZM53.0359 117.898H142.964V109.898H53.0359V117.898ZM138.964 113.898V115.337H146.964V113.898H138.964ZM142.964 111.337H53.0359V119.337H142.964V111.337ZM57.0359 115.337V113.898H49.0359V115.337H57.0359Z" fill="#424B57" mask="url(#path-3-inside-2_146_270)"/>
<mask id="path-5-inside-3_146_270" fill="white">
<path d="M78.9126 66.1874C82.3313 66.1874 82.901 64.3356 82.901 62.6263C82.901 61.3443 82.7111 59.7774 82.5212 58.4479C82.2838 57.1184 82.1413 54.9343 82.1413 53.6523C82.1413 49.284 84.9902 47.4322 89.0259 47.4322H90.023V50.0437H89.1686C86.3672 50.0912 85.4176 51.5156 85.4176 54.1271C85.4176 55.2191 85.56 57.2134 85.7499 58.3529C85.8924 59.4925 86.0823 60.9169 86.0823 62.1514C86.1298 65.2377 84.8003 66.7571 82.6636 67.3269V67.4219C84.8003 67.9442 86.1298 69.5585 86.0823 72.5974C86.0823 73.8794 85.8924 75.3038 85.7499 76.4434C85.56 77.6304 85.4176 79.5296 85.4176 80.6692C85.4176 83.3756 86.5096 84.7524 89.1686 84.8476H90.023V87.459H89.0259C85.1324 87.459 82.1413 85.7022 82.1413 80.9068C82.1413 79.6723 82.2838 77.5357 82.5212 76.2537C82.7111 74.9242 82.901 73.4048 82.901 72.1228C82.901 70.6034 82.3313 68.6092 78.9126 68.6092V66.1874Z"/>
</mask>
<path d="M78.9126 66.1874C82.3313 66.1874 82.901 64.3356 82.901 62.6263C82.901 61.3443 82.7111 59.7774 82.5212 58.4479C82.2838 57.1184 82.1413 54.9343 82.1413 53.6523C82.1413 49.284 84.9902 47.4322 89.0259 47.4322H90.023V50.0437H89.1686C86.3672 50.0912 85.4176 51.5156 85.4176 54.1271C85.4176 55.2191 85.56 57.2134 85.7499 58.3529C85.8924 59.4925 86.0823 60.9169 86.0823 62.1514C86.1298 65.2377 84.8003 66.7571 82.6636 67.3269V67.4219C84.8003 67.9442 86.1298 69.5585 86.0823 72.5974C86.0823 73.8794 85.8924 75.3038 85.7499 76.4434C85.56 77.6304 85.4176 79.5296 85.4176 80.6692C85.4176 83.3756 86.5096 84.7524 89.1686 84.8476H90.023V87.459H89.0259C85.1324 87.459 82.1413 85.7022 82.1413 80.9068C82.1413 79.6723 82.2838 77.5357 82.5212 76.2537C82.7111 74.9242 82.901 73.4048 82.901 72.1228C82.901 70.6034 82.3313 68.6092 78.9126 68.6092V66.1874Z" fill="#424B57"/>
<path d="M78.9126 66.1874V62.1874H74.9126V66.1874H78.9126ZM82.5212 58.4479L86.481 57.8822L86.4711 57.8133L86.4589 57.7447L82.5212 58.4479ZM90.023 47.4322H94.023V43.4322H90.023V47.4322ZM90.023 50.0437V54.0437H94.023V50.0437H90.023ZM89.1686 50.0437V46.0437H89.1347L89.1008 46.0442L89.1686 50.0437ZM85.7499 58.3529L89.719 57.8568L89.7089 57.7758L89.6955 57.6953L85.7499 58.3529ZM86.0823 62.1514H82.0823V62.1822L82.0828 62.213L86.0823 62.1514ZM82.6636 67.3269L81.633 63.462L78.6636 64.2538V67.3269H82.6636ZM82.6636 67.4219H78.6636V70.5619L81.7138 71.3075L82.6636 67.4219ZM86.0823 72.5974L82.0828 72.5349L82.0823 72.5661V72.5974H86.0823ZM85.7499 76.4434L89.6997 77.0753L89.7105 77.0076L89.719 76.9395L85.7499 76.4434ZM89.1686 84.8476L89.0255 88.845L89.097 88.8476H89.1686V84.8476ZM90.023 84.8476H94.023V80.8476H90.023V84.8476ZM90.023 87.459V91.459H94.023V87.459H90.023ZM82.5212 76.2537L86.4543 76.982L86.4693 76.901L86.481 76.8194L82.5212 76.2537ZM78.9126 68.6092H74.9126V72.6092H78.9126V68.6092ZM78.9126 70.1874C81.3141 70.1874 83.6523 69.5197 85.2485 67.6244C86.7337 65.8607 86.901 63.798 86.901 62.6263H78.901C78.901 62.731 78.8966 62.806 78.8913 62.8567C78.886 62.9074 78.8813 62.9205 78.8855 62.9043C78.8952 62.8667 78.9511 62.6827 79.1292 62.4713C79.2156 62.3686 79.3102 62.2847 79.4015 62.2215C79.4912 62.1595 79.5558 62.1326 79.5735 62.126C79.5987 62.1166 79.4214 62.1874 78.9126 62.1874V70.1874ZM86.901 62.6263C86.901 61.0351 86.6724 59.2224 86.481 57.8822L78.5614 59.0136C78.7498 60.3323 78.901 61.6534 78.901 62.6263H86.901ZM86.4589 57.7447C86.2748 56.7138 86.1413 54.7773 86.1413 53.6523H78.1413C78.1413 55.0912 78.2928 57.523 78.5835 59.151L86.4589 57.7447ZM86.1413 53.6523C86.1413 52.3973 86.507 52.0798 86.6236 51.9831C86.8678 51.7806 87.545 51.4322 89.0259 51.4322V43.4322C86.4711 43.4322 83.706 44.0096 81.5169 45.8251C79.2001 47.7464 78.1413 50.5389 78.1413 53.6523H86.1413ZM89.0259 51.4322H90.023V43.4322H89.0259V51.4322ZM86.023 47.4322V50.0437H94.023V47.4322H86.023ZM90.023 46.0437H89.1686V54.0437H90.023V46.0437ZM89.1008 46.0442C87.0761 46.0786 84.815 46.6348 83.2 48.5272C81.6912 50.2951 81.4176 52.4738 81.4176 54.1271H89.4176C89.4176 53.9196 89.4271 53.7584 89.4404 53.6364C89.4537 53.5142 89.4692 53.4452 89.4764 53.4179C89.4834 53.3916 89.4794 53.4163 89.4503 53.475C89.4201 53.5361 89.3675 53.624 89.2851 53.7205C89.2016 53.8184 89.1066 53.9027 89.0097 53.969C88.9145 54.0341 88.8396 54.0669 88.8045 54.08C88.7718 54.0923 88.7831 54.084 88.8552 54.0721C88.9281 54.0601 89.0514 54.0462 89.2364 54.0431L89.1008 46.0442ZM81.4176 54.1271C81.4176 55.404 81.5728 57.6212 81.8043 59.0105L89.6955 57.6953C89.5472 56.8055 89.4176 55.0343 89.4176 54.1271H81.4176ZM81.7808 58.8491C81.935 60.0826 82.0823 61.2228 82.0823 62.1514H90.0823C90.0823 60.6111 89.8497 58.9023 89.719 57.8568L81.7808 58.8491ZM82.0828 62.213C82.0979 63.1934 81.8874 63.4279 81.9293 63.3689C81.9458 63.3455 81.9654 63.3328 81.9542 63.3399C81.9333 63.3532 81.842 63.4063 81.633 63.462L83.6943 71.1919C85.438 70.7269 87.1992 69.7672 88.4548 67.9969C89.6837 66.2641 90.1142 64.1958 90.0818 62.0899L82.0828 62.213ZM78.6636 67.3269V67.4219H86.6636V67.3269H78.6636ZM81.7138 71.3075C81.8794 71.3479 81.9426 71.3881 81.9458 71.3902C81.9479 71.3915 81.9417 71.3877 81.9319 71.3782C81.9219 71.3687 81.9157 71.3606 81.914 71.3582C81.8911 71.3255 82.0976 71.5876 82.0828 72.5349L90.0818 72.6598C90.1145 70.5683 89.6799 68.5038 88.47 66.7736C87.2266 64.9955 85.4548 63.9864 83.6134 63.5363L81.7138 71.3075ZM82.0823 72.5974C82.0823 73.5754 81.9341 74.7212 81.7808 75.9472L89.719 76.9395C89.8507 75.8864 90.0823 74.1833 90.0823 72.5974H82.0823ZM81.8002 75.8114C81.5752 77.2177 81.4176 79.3286 81.4176 80.6692H89.4176C89.4176 79.7307 89.5448 78.0431 89.6997 77.0753L81.8002 75.8114ZM81.4176 80.6692C81.4176 82.4571 81.7615 84.6234 83.2809 86.3662C84.8739 88.1934 87.062 88.7747 89.0255 88.845L89.3117 80.8501C89.1448 80.8442 89.0321 80.8295 88.9642 80.8171C88.8969 80.8048 88.8826 80.7963 88.9072 80.8058C88.9337 80.8161 88.9952 80.8434 89.0752 80.8982C89.1566 80.9541 89.2382 81.0255 89.311 81.109C89.3831 81.1918 89.4301 81.2673 89.4576 81.3206C89.4841 81.3719 89.4873 81.3923 89.48 81.3663C89.4724 81.3393 89.4561 81.2717 89.4421 81.1528C89.428 81.0339 89.4176 80.8749 89.4176 80.6692H81.4176ZM89.1686 88.8476H90.023V80.8476H89.1686V88.8476ZM86.023 84.8476V87.459H94.023V84.8476H86.023ZM90.023 83.459H89.0259V91.459H90.023V83.459ZM89.0259 83.459C87.5997 83.459 86.9446 83.1273 86.6988 82.9205C86.5781 82.8189 86.1413 82.4299 86.1413 80.9068H78.1413C78.1413 84.1792 79.2001 87.0663 81.5484 89.042C83.7714 90.9124 86.5586 91.459 89.0259 91.459V83.459ZM86.1413 80.9068C86.1413 79.8311 86.2747 77.9522 86.4543 76.982L78.5881 75.5253C78.2929 77.1191 78.1413 79.5136 78.1413 80.9068H86.1413ZM86.481 76.8194C86.6707 75.4914 86.901 73.7192 86.901 72.1228H78.901C78.901 73.0904 78.7515 74.357 78.5614 75.688L86.481 76.8194ZM86.901 72.1228C86.901 70.9705 86.7046 68.9789 85.2704 67.2459C83.7167 65.3685 81.411 64.6092 78.9126 64.6092V72.6092C79.3891 72.6092 79.5466 72.6798 79.5103 72.6655C79.4891 72.6571 79.4283 72.6299 79.3468 72.5715C79.2645 72.5125 79.1817 72.4365 79.1072 72.3465C78.9553 72.1628 78.9046 72.0044 78.8937 71.9634C78.8859 71.9343 78.901 71.9786 78.901 72.1228H86.901ZM82.9126 68.6092V66.1874H74.9126V68.6092H82.9126Z" fill="#424B57" mask="url(#path-5-inside-3_146_270)"/>
<path d="M97.1976 61.9253L97.1984 61.8959V61.8665C97.1984 61.4451 97.3347 61.2099 97.446 61.0933C97.5518 60.9825 97.7311 60.8751 98.0473 60.8751C98.3551 60.8751 98.4926 60.9749 98.5682 61.058C98.6597 61.1586 98.801 61.3992 98.801 61.8665C98.801 62.2269 98.6808 62.4674 98.5629 62.5968C98.4626 62.7069 98.3025 62.8103 97.9996 62.8103C97.7252 62.8103 97.5419 62.7095 97.4203 62.5792C97.2915 62.4412 97.1889 62.2209 97.1976 61.9253ZM97.7238 77.3746L97.7966 77.3671C97.7441 77.5215 97.691 77.6762 97.6372 77.8308C97.667 77.6773 97.6958 77.5252 97.7238 77.3746Z" fill="#424B57" stroke="#424B57" stroke-width="4"/>
<mask id="path-8-inside-4_146_270" fill="white">
<path d="M117.04 68.6088C113.669 68.6088 113.099 70.6031 113.099 72.1225C113.099 73.4045 113.289 74.9239 113.479 76.2534C113.669 77.5354 113.858 79.672 113.858 80.9065C113.858 85.7019 110.867 86.699 106.974 86.699H105.977V84.8473H106.831C109.443 84.7523 110.582 83.3753 110.582 80.6689C110.582 79.5293 110.393 77.6301 110.25 76.443C110.06 75.3035 109.87 73.8793 109.87 72.597C109.823 69.5582 111.2 67.9439 113.336 67.4216V67.3266C111.2 66.7568 109.823 65.2374 109.87 62.1511C109.87 60.9166 110.06 59.4922 110.25 58.3526C110.393 57.2131 110.582 55.2188 110.582 54.1268C110.582 51.5153 109.585 50.0908 106.831 50.0434H105.977V47.4319H106.926C111.01 47.4319 113.858 49.2837 113.858 53.652C113.858 54.934 113.669 57.1181 113.479 58.4476C113.289 59.7771 113.099 61.3439 113.099 62.6259C113.099 64.3353 113.669 66.1871 117.04 66.1871V68.6088Z"/>
</mask>
<path d="M117.04 68.6088C113.669 68.6088 113.099 70.6031 113.099 72.1225C113.099 73.4045 113.289 74.9239 113.479 76.2534C113.669 77.5354 113.858 79.672 113.858 80.9065C113.858 85.7019 110.867 86.699 106.974 86.699H105.977V84.8473H106.831C109.443 84.7523 110.582 83.3753 110.582 80.6689C110.582 79.5293 110.393 77.6301 110.25 76.443C110.06 75.3035 109.87 73.8793 109.87 72.597C109.823 69.5582 111.2 67.9439 113.336 67.4216V67.3266C111.2 66.7568 109.823 65.2374 109.87 62.1511C109.87 60.9166 110.06 59.4922 110.25 58.3526C110.393 57.2131 110.582 55.2188 110.582 54.1268C110.582 51.5153 109.585 50.0908 106.831 50.0434H105.977V47.4319H106.926C111.01 47.4319 113.858 49.2837 113.858 53.652C113.858 54.934 113.669 57.1181 113.479 58.4476C113.289 59.7771 113.099 61.3439 113.099 62.6259C113.099 64.3353 113.669 66.1871 117.04 66.1871V68.6088Z" fill="#424B57"/>
<path d="M117.04 68.6088V72.6088H121.04V68.6088H117.04ZM113.479 76.2534L109.519 76.819L109.52 76.8293L109.522 76.8396L113.479 76.2534ZM105.977 86.699H101.977V90.699H105.977V86.699ZM105.977 84.8473V80.8473H101.977V84.8473H105.977ZM106.831 84.8473V88.8473H106.904L106.977 88.8446L106.831 84.8473ZM110.25 76.443L114.221 75.9657L114.21 75.8753L114.195 75.7855L110.25 76.443ZM109.87 72.597H113.87V72.5658L113.87 72.5346L109.87 72.597ZM113.336 67.4216L114.286 71.3072L117.336 70.5616V67.4216H113.336ZM113.336 67.3266H117.336V64.2535L114.367 63.4617L113.336 67.3266ZM109.87 62.1511L113.87 62.2127L113.87 62.1819V62.1511H109.87ZM110.25 58.3526L114.195 59.0102L114.209 58.9301L114.219 58.8496L110.25 58.3526ZM106.831 50.0434L106.9 46.044L106.866 46.0434H106.831V50.0434ZM105.977 50.0434H101.977V54.0434H105.977V50.0434ZM105.977 47.4319V43.4319H101.977V47.4319H105.977ZM117.04 66.1871H121.04V62.1871H117.04V66.1871ZM117.04 64.6088C114.547 64.6088 112.251 65.3799 110.71 67.2615C109.295 68.99 109.099 70.9714 109.099 72.1225H117.099C117.099 71.9784 117.114 71.9312 117.107 71.9564C117.098 71.9926 117.049 72.1477 116.9 72.3303C116.826 72.4201 116.743 72.4974 116.659 72.5583C116.576 72.6187 116.512 72.6482 116.486 72.6588C116.438 72.6777 116.581 72.6088 117.04 72.6088V64.6088ZM109.099 72.1225C109.099 73.7189 109.329 75.4911 109.519 76.819L117.438 75.6877C117.248 74.3566 117.099 73.0901 117.099 72.1225H109.099ZM109.522 76.8396C109.692 77.985 109.858 79.9189 109.858 80.9065H117.858C117.858 79.4252 117.646 77.0857 117.435 75.6672L109.522 76.8396ZM109.858 80.9065C109.858 81.704 109.732 82.0808 109.675 82.2101C109.636 82.2973 109.624 82.2952 109.61 82.3049C109.557 82.3416 109.362 82.4535 108.895 82.5486C108.423 82.6445 107.797 82.699 106.974 82.699V90.699C109.079 90.699 111.854 90.4703 114.142 88.8972C116.769 87.0912 117.858 84.1989 117.858 80.9065H109.858ZM106.974 82.699H105.977V90.699H106.974V82.699ZM109.977 86.699V84.8473H101.977V86.699H109.977ZM105.977 88.8473H106.831V80.8473H105.977V88.8473ZM106.977 88.8446C108.934 88.7734 111.101 88.1834 112.688 86.3805C114.211 84.6508 114.582 82.493 114.582 80.6689H106.582C106.582 80.8686 106.572 81.0224 106.558 81.1366C106.544 81.2507 106.528 81.3152 106.52 81.3403C106.514 81.3643 106.517 81.3444 106.543 81.2951C106.57 81.244 106.615 81.1724 106.684 81.0943C106.753 81.0155 106.83 80.9482 106.907 80.8955C106.983 80.8438 107.041 80.8178 107.067 80.8079C107.09 80.7987 107.077 80.8066 107.014 80.8183C106.95 80.8301 106.844 80.8442 106.686 80.8499L106.977 88.8446ZM114.582 80.6689C114.582 79.2634 114.364 77.1492 114.221 75.9657L106.278 76.9204C106.422 78.1109 106.582 79.7952 106.582 80.6689H114.582ZM114.195 75.7855C114.016 74.7105 113.87 73.5449 113.87 72.597H105.87C105.87 74.2136 106.104 75.8965 106.304 77.1006L114.195 75.7855ZM113.87 72.5346C113.862 72.0781 113.911 71.7809 113.957 71.6062C113.98 71.5201 114.002 71.4645 114.017 71.4326C114.031 71.4012 114.04 71.3886 114.041 71.3884C114.041 71.3884 114.037 71.3931 114.031 71.3989C114.025 71.4044 114.023 71.4047 114.031 71.4001C114.044 71.3913 114.117 71.3485 114.286 71.3072L112.386 63.536C110.558 63.983 108.784 64.9813 107.528 66.7428C106.297 68.4685 105.837 70.5399 105.871 72.6595L113.87 72.5346ZM117.336 67.4216V67.3266H109.336V67.4216H117.336ZM114.367 63.4617C113.961 63.3536 113.967 63.2585 114.025 63.3381C114.064 63.3926 113.855 63.1649 113.87 62.2127L105.871 62.0896C105.838 64.2237 106.293 66.2988 107.543 68.027C108.812 69.7804 110.574 70.7299 112.306 71.1915L114.367 63.4617ZM113.87 62.1511C113.87 61.2545 114.015 60.0918 114.195 59.0102L106.304 57.695C106.105 58.8925 105.87 60.5787 105.87 62.1511H113.87ZM114.219 58.8496C114.366 57.6785 114.582 55.4799 114.582 54.1268H106.582C106.582 54.9578 106.42 56.7476 106.281 57.8557L114.219 58.8496ZM114.582 54.1268C114.582 52.4357 114.282 50.2669 112.769 48.5119C111.16 46.6446 108.921 46.0788 106.9 46.044L106.762 54.0428C106.938 54.0458 107.056 54.0592 107.124 54.0707C107.192 54.082 107.202 54.0897 107.17 54.0776C107.136 54.0647 107.064 54.0332 106.973 53.9712C106.881 53.9082 106.79 53.8281 106.71 53.7352C106.631 53.6435 106.58 53.5598 106.55 53.5009C106.522 53.4442 106.517 53.4199 106.524 53.4441C106.531 53.4693 106.546 53.5351 106.559 53.6524C106.573 53.7695 106.582 53.9255 106.582 54.1268H114.582ZM106.831 46.0434H105.977V54.0434H106.831V46.0434ZM109.977 50.0434V47.4319H101.977V50.0434H109.977ZM105.977 51.4319H106.926V43.4319H105.977V51.4319ZM106.926 51.4319C108.441 51.4319 109.13 51.7846 109.378 51.9889C109.494 52.0846 109.858 52.3977 109.858 53.652H117.858C117.858 50.5379 116.799 47.7409 114.47 45.8187C112.272 44.0051 109.496 43.4319 106.926 43.4319V51.4319ZM109.858 53.652C109.858 54.6927 109.691 56.6801 109.519 57.8819L117.438 59.0133C117.647 57.5561 117.858 55.1752 117.858 53.652H109.858ZM109.519 57.8819C109.327 59.2221 109.099 61.0348 109.099 62.6259H117.099C117.099 61.6531 117.25 60.332 117.438 59.0133L109.519 57.8819ZM109.099 62.6259C109.099 63.797 109.266 65.8489 110.732 67.6082C112.316 69.5091 114.644 70.1871 117.04 70.1871V62.1871C116.548 62.1871 116.385 62.1178 116.422 62.1316C116.445 62.1403 116.513 62.1695 116.605 62.2337C116.698 62.2989 116.792 62.3842 116.878 62.4868C117.053 62.6973 117.107 62.8778 117.115 62.9105C117.119 62.927 117.099 62.8491 117.099 62.6259H109.099ZM113.04 66.1871V68.6088H121.04V66.1871H113.04Z" fill="#424B57" mask="url(#path-8-inside-4_146_270)"/>
<mask id="path-10-inside-5_146_270" fill="white">
<path d="M77.6793 123.967H79.6841V134.242C79.6841 138.32 77.6793 139.573 75.0367 139.573C74.2849 139.573 73.4192 139.413 72.918 139.231L73.2141 137.591C73.6242 137.773 74.1937 137.887 74.8772 137.887C76.6541 137.887 77.6793 137.067 77.6793 134.059V123.967Z"/>
</mask>
<path d="M77.6793 123.967H79.6841V134.242C79.6841 138.32 77.6793 139.573 75.0367 139.573C74.2849 139.573 73.4192 139.413 72.918 139.231L73.2141 137.591C73.6242 137.773 74.1937 137.887 74.8772 137.887C76.6541 137.887 77.6793 137.067 77.6793 134.059V123.967Z" fill="#424B57"/>
<path d="M77.6793 123.967V119.967H73.6793V123.967H77.6793ZM79.6841 123.967H83.6841V119.967H79.6841V123.967ZM72.918 139.231L68.9816 138.52L68.3826 141.838L71.551 142.99L72.918 139.231ZM73.2141 137.591L74.8387 133.935L70.183 131.866L69.2778 136.88L73.2141 137.591ZM77.6793 127.967H79.6841V119.967H77.6793V127.967ZM75.6841 123.967V134.242H83.6841V123.967H75.6841ZM75.6841 134.242C75.6841 135.684 75.3301 135.799 75.5376 135.594C75.7408 135.393 75.7894 135.573 75.0367 135.573V143.573C76.9265 143.573 79.2989 143.127 81.1651 141.28C83.0356 139.428 83.6841 136.877 83.6841 134.242H75.6841ZM75.0367 135.573C74.9233 135.573 74.744 135.559 74.5458 135.525C74.453 135.51 74.3753 135.493 74.3189 135.479C74.2574 135.464 74.2486 135.459 74.2849 135.472L71.551 142.99C72.5301 143.346 73.863 143.573 75.0367 143.573V135.573ZM76.8543 139.942L77.1505 138.301L69.2778 136.88L68.9816 138.52L76.8543 139.942ZM71.5896 141.246C72.6399 141.713 73.7947 141.887 74.8772 141.887V133.887C74.8169 133.887 74.7684 133.884 74.7318 133.881C74.6951 133.878 74.673 133.874 74.6649 133.873C74.6566 133.871 74.6667 133.873 74.6934 133.881C74.7196 133.888 74.7697 133.905 74.8387 133.935L71.5896 141.246ZM74.8772 141.887C76.3301 141.887 78.468 141.543 80.0323 139.644C81.4138 137.966 81.6793 135.835 81.6793 134.059H73.6793C73.6793 134.605 73.6306 134.876 73.6088 134.964C73.5898 135.041 73.6257 134.839 73.8569 134.558C73.9726 134.417 74.1152 134.285 74.2791 134.172C74.441 134.061 74.5939 133.989 74.7164 133.946C74.9427 133.865 75.0383 133.887 74.8772 133.887V141.887ZM81.6793 134.059V123.967H73.6793V134.059H81.6793Z" fill="#424B57" mask="url(#path-10-inside-5_146_270)"/>
<mask id="path-12-inside-6_146_270" fill="white">
<path d="M82.7138 136.907C83.6023 137.454 84.9008 137.91 86.2677 137.91C88.2953 137.91 89.4799 136.839 89.4799 135.29C89.4799 133.855 88.6598 133.034 86.5639 132.237C84.0807 131.372 82.5315 130.027 82.5315 127.886C82.5315 125.517 84.5135 123.74 87.4979 123.74C89.0471 123.74 90.2089 124.104 90.8924 124.469L90.3456 126.086C89.8444 125.813 88.8192 125.357 87.4296 125.357C85.3337 125.357 84.5363 126.61 84.5363 127.658C84.5363 129.093 85.4704 129.8 87.589 130.62C90.1861 131.645 91.5075 132.875 91.5075 135.131C91.5075 137.5 89.7533 139.573 86.131 139.573C84.6274 139.573 83.01 139.117 82.1898 138.571L82.7138 136.907Z"/>
</mask>
<path d="M82.7138 136.907C83.6023 137.454 84.9008 137.91 86.2677 137.91C88.2953 137.91 89.4799 136.839 89.4799 135.29C89.4799 133.855 88.6598 133.034 86.5639 132.237C84.0807 131.372 82.5315 130.027 82.5315 127.886C82.5315 125.517 84.5135 123.74 87.4979 123.74C89.0471 123.74 90.2089 124.104 90.8924 124.469L90.3456 126.086C89.8444 125.813 88.8192 125.357 87.4296 125.357C85.3337 125.357 84.5363 126.61 84.5363 127.658C84.5363 129.093 85.4704 129.8 87.589 130.62C90.1861 131.645 91.5075 132.875 91.5075 135.131C91.5075 137.5 89.7533 139.573 86.131 139.573C84.6274 139.573 83.01 139.117 82.1898 138.571L82.7138 136.907Z" fill="#424B57"/>
<path d="M82.7138 136.907L84.8102 133.501L80.4403 130.812L78.8986 135.705L82.7138 136.907ZM86.5639 132.237L87.9858 128.499L87.9335 128.479L87.8806 128.46L86.5639 132.237ZM90.8924 124.469L94.6817 125.75L95.7681 122.536L92.7747 120.939L90.8924 124.469ZM90.3456 126.086L88.4289 129.597L92.6097 131.879L94.135 127.367L90.3456 126.086ZM87.589 130.62L89.0574 126.899L89.0454 126.894L89.0334 126.89L87.589 130.62ZM82.1898 138.571L78.3747 137.369L77.4723 140.233L79.971 141.899L82.1898 138.571ZM80.6174 140.314C82.0579 141.2 84.0736 141.91 86.2677 141.91V133.91C86.0222 133.91 85.7446 133.868 85.4627 133.783C85.1776 133.697 84.9498 133.587 84.8102 133.501L80.6174 140.314ZM86.2677 141.91C87.9546 141.91 89.7545 141.463 91.206 140.244C92.7257 138.969 93.4799 137.159 93.4799 135.29H85.4799C85.4799 135.162 85.5059 134.956 85.6134 134.716C85.7227 134.472 85.8843 134.267 86.0623 134.117C86.4146 133.822 86.6084 133.91 86.2677 133.91V141.91ZM93.4799 135.29C93.4799 133.676 92.9644 132.072 91.6865 130.747C90.5969 129.618 89.1965 128.959 87.9858 128.499L85.142 135.976C85.5455 136.13 85.7885 136.247 85.9258 136.326C86.0617 136.403 86.0283 136.404 85.9292 136.302C85.8122 136.18 85.6717 135.984 85.5756 135.729C85.4844 135.487 85.4799 135.315 85.4799 135.29H93.4799ZM87.8806 128.46C86.9452 128.134 86.5738 127.843 86.4735 127.74C86.4422 127.709 86.4721 127.731 86.5035 127.806C86.5362 127.884 86.5315 127.926 86.5315 127.886H78.5315C78.5315 130.049 79.3616 131.913 80.7595 133.34C82.0546 134.661 83.6994 135.475 85.2471 136.014L87.8806 128.46ZM86.5315 127.886C86.5315 127.86 86.535 127.882 86.5148 127.925C86.4952 127.967 86.4762 127.981 86.4905 127.968C86.5165 127.946 86.7882 127.74 87.4979 127.74V119.74C82.927 119.74 78.5315 122.732 78.5315 127.886H86.5315ZM87.4979 127.74C87.959 127.74 88.3234 127.794 88.5863 127.857C88.7178 127.889 88.8206 127.922 88.8947 127.949C88.9314 127.963 88.9597 127.975 88.9796 127.984C88.9895 127.988 88.997 127.992 89.0022 127.994C89.0048 127.995 89.0067 127.996 89.008 127.997C89.0094 127.998 89.01 127.998 89.01 127.998L92.7747 120.939C91.467 120.242 89.6508 119.74 87.4979 119.74V127.74ZM87.103 123.188L86.5562 124.805L94.135 127.367L94.6817 125.75L87.103 123.188ZM92.2623 122.575C91.3932 122.101 89.7015 121.357 87.4296 121.357V129.357C87.937 129.357 88.2956 129.524 88.4289 129.597L92.2623 122.575ZM87.4296 121.357C85.5614 121.357 83.7705 121.935 82.4224 123.233C81.1104 124.497 80.5363 126.145 80.5363 127.658H88.5363C88.5363 128.123 88.3609 128.621 87.9716 128.996C87.5461 129.406 87.2018 129.357 87.4296 129.357V121.357ZM80.5363 127.658C80.5363 129.449 81.2056 131.067 82.5598 132.313C83.6541 133.32 85.0373 133.921 86.1447 134.35L89.0334 126.89C88.578 126.713 88.282 126.579 88.0891 126.477C87.8938 126.374 87.8936 126.35 87.9765 126.426C88.0816 126.523 88.2583 126.724 88.3905 127.032C88.5203 127.334 88.5363 127.573 88.5363 127.658H80.5363ZM86.1207 134.341C86.6334 134.543 86.9887 134.719 87.2325 134.866C87.473 135.011 87.5575 135.099 87.5677 135.11C87.5714 135.114 87.5607 135.103 87.5447 135.077C87.5282 135.05 87.5144 135.021 87.5049 134.995C87.4837 134.938 87.5075 134.962 87.5075 135.131H95.5075C95.5075 133.113 94.8737 131.248 93.4766 129.717C92.215 128.335 90.5706 127.496 89.0574 126.899L86.1207 134.341ZM87.5075 135.131C87.5075 135.229 87.4898 135.273 87.4876 135.279C87.4874 135.279 87.49 135.278 87.4794 135.287C87.4681 135.298 87.3952 135.362 87.2003 135.429C87 135.498 86.6574 135.573 86.131 135.573V143.573C88.7037 143.573 91.0892 142.826 92.8757 141.193C94.6741 139.55 95.5075 137.329 95.5075 135.131H87.5075ZM86.131 135.573C85.7597 135.573 85.3214 135.513 84.919 135.408C84.7244 135.357 84.57 135.303 84.4632 135.259C84.3461 135.211 84.3393 135.196 84.4086 135.242L79.971 141.899C81.6112 142.992 84.0595 143.573 86.131 143.573V135.573ZM86.005 139.772L86.529 138.109L78.8986 135.705L78.3747 137.369L86.005 139.772Z" fill="#424B57" mask="url(#path-12-inside-6_146_270)"/>
<mask id="path-14-inside-7_146_270" fill="white">
<path d="M107.341 131.622C107.341 136.725 104.083 139.573 100.21 139.573C96.0637 139.573 93.3071 136.315 93.3071 131.736C93.3071 127.02 96.2459 123.717 100.484 123.717C104.858 123.717 107.341 127.18 107.341 131.622ZM95.4258 131.668C95.4258 135.153 97.2028 137.956 100.324 137.956C103.559 137.956 105.245 135.017 105.245 131.668C105.245 128.524 103.719 125.334 100.347 125.334C97.1572 125.334 95.4258 128.205 95.4258 131.668Z"/>
</mask>
<path d="M107.341 131.622C107.341 136.725 104.083 139.573 100.21 139.573C96.0637 139.573 93.3071 136.315 93.3071 131.736C93.3071 127.02 96.2459 123.717 100.484 123.717C104.858 123.717 107.341 127.18 107.341 131.622ZM95.4258 131.668C95.4258 135.153 97.2028 137.956 100.324 137.956C103.559 137.956 105.245 135.017 105.245 131.668C105.245 128.524 103.719 125.334 100.347 125.334C97.1572 125.334 95.4258 128.205 95.4258 131.668Z" fill="#424B57"/>
<path d="M100.347 125.334L100.347 121.334L100.347 125.334ZM103.341 131.622C103.341 133.301 102.822 134.242 102.345 134.738C101.86 135.242 101.148 135.573 100.21 135.573V143.573C103.145 143.573 105.998 142.48 108.11 140.284C110.23 138.08 111.341 135.046 111.341 131.622H103.341ZM100.21 135.573C99.258 135.573 98.6451 135.233 98.2205 134.745C97.7549 134.21 97.3071 133.238 97.3071 131.736H89.3071C89.3071 134.813 90.2377 137.759 92.1869 139.998C94.1772 142.284 97.0158 143.573 100.21 143.573V135.573ZM97.3071 131.736C97.3071 130.203 97.778 129.195 98.2892 128.623C98.7701 128.084 99.4663 127.717 100.484 127.717V119.717C97.2632 119.717 94.3712 121 92.3233 123.293C90.3057 125.551 89.3071 128.553 89.3071 131.736H97.3071ZM100.484 127.717C101.512 127.717 102.078 128.076 102.462 128.543C102.916 129.096 103.341 130.108 103.341 131.622H111.341C111.341 128.693 110.524 125.753 108.643 123.464C106.692 121.089 103.829 119.717 100.484 119.717V127.717ZM91.4258 131.668C91.4258 134.036 92.0227 136.501 93.4803 138.486C95.0188 140.581 97.4086 141.956 100.324 141.956V133.956C100.16 133.956 100.104 133.923 100.098 133.92C100.084 133.913 100.022 133.878 99.9285 133.751C99.7174 133.464 99.4258 132.785 99.4258 131.668H91.4258ZM100.324 141.956C103.328 141.956 105.731 140.517 107.25 138.396C108.679 136.4 109.245 133.951 109.245 131.668H101.245C101.245 132.734 100.968 133.428 100.745 133.739C100.649 133.874 100.584 133.91 100.571 133.917C100.567 133.919 100.508 133.956 100.324 133.956V141.956ZM109.245 131.668C109.245 129.527 108.738 127.103 107.376 125.085C105.916 122.92 103.509 121.334 100.347 121.334V129.334C100.45 129.334 100.509 129.346 100.533 129.352C100.556 129.358 100.565 129.364 100.569 129.366C100.572 129.367 100.64 129.404 100.744 129.559C100.989 129.922 101.245 130.665 101.245 131.668H109.245ZM100.347 121.334C97.3841 121.334 94.9814 122.738 93.4483 124.859C92.0026 126.86 91.4258 129.329 91.4258 131.668H99.4258C99.4258 130.544 99.7147 129.846 99.9321 129.546C100.027 129.414 100.09 129.379 100.103 129.373C100.108 129.37 100.167 129.334 100.347 129.334L100.347 121.334Z" fill="#424B57" mask="url(#path-14-inside-7_146_270)"/>
<mask id="path-16-inside-8_146_270" fill="white">
<path d="M109.892 139.322V123.967H112.102L117 131.713C118.116 133.536 119.027 135.154 119.756 136.725L119.802 136.703C119.62 134.652 119.574 132.784 119.574 130.415V123.967H121.442V139.322H119.438L114.562 131.531C113.492 129.822 112.466 128.068 111.692 126.405L111.623 126.428C111.737 128.364 111.783 130.21 111.783 132.761V139.322L109.892 139.322Z"/>
</mask>
<path d="M109.892 139.322V123.967H112.102L117 131.713C118.116 133.536 119.027 135.154 119.756 136.725L119.802 136.703C119.62 134.652 119.574 132.784 119.574 130.415V123.967H121.442V139.322H119.438L114.562 131.531C113.492 129.822 112.466 128.068 111.692 126.405L111.623 126.428C111.737 128.364 111.783 130.21 111.783 132.761V139.322L109.892 139.322Z" fill="#424B57"/>
<path d="M109.892 139.322H105.892V143.323L109.892 143.322L109.892 139.322ZM109.892 123.967V119.967H105.892V123.967H109.892ZM112.102 123.967L115.482 121.83L114.305 119.967H112.102V123.967ZM117 131.713L120.411 129.624L120.396 129.6L120.381 129.575L117 131.713ZM119.756 136.725L116.128 138.408L117.865 142.153L121.552 140.299L119.756 136.725ZM119.802 136.703L121.598 140.277L124.027 139.056L123.786 136.348L119.802 136.703ZM119.574 123.967V119.967H115.574V123.967H119.574ZM121.442 123.967H125.442V119.967H121.442V123.967ZM121.442 139.322V143.322H125.442V139.322H121.442ZM119.438 139.322L116.047 141.444L117.222 143.322H119.438V139.322ZM114.562 131.531L117.953 129.409L117.952 129.407L114.562 131.531ZM111.692 126.405L115.317 124.716L113.811 121.482L110.426 122.61L111.692 126.405ZM111.623 126.428L110.358 122.633L107.45 123.603L107.63 126.663L111.623 126.428ZM111.783 139.322L111.783 143.322L115.783 143.322V139.322H111.783ZM113.892 139.322V123.967H105.892V139.322H113.892ZM109.892 127.967H112.102V119.967H109.892V127.967ZM108.721 126.105L113.619 133.851L120.381 129.575L115.482 121.83L108.721 126.105ZM113.589 133.802C114.667 135.563 115.49 137.034 116.128 138.408L123.385 135.042C122.565 133.274 121.566 131.51 120.411 129.624L113.589 133.802ZM121.552 140.299L121.598 140.277L118.006 133.128L117.96 133.151L121.552 140.299ZM123.786 136.348C123.619 134.466 123.574 132.731 123.574 130.415H115.574C115.574 132.837 115.62 134.838 115.818 137.057L123.786 136.348ZM123.574 130.415V123.967H115.574V130.415H123.574ZM119.574 127.967H121.442V119.967H119.574V127.967ZM117.442 123.967V139.322H125.442V123.967H117.442ZM121.442 135.322H119.438V143.322H121.442V135.322ZM122.828 137.2L117.953 129.409L111.171 133.653L116.047 141.444L122.828 137.2ZM117.952 129.407C116.913 127.749 115.989 126.157 115.317 124.716L108.066 128.094C108.944 129.979 110.071 131.896 111.173 133.655L117.952 129.407ZM110.426 122.61L110.358 122.633L112.889 130.222L112.957 130.2L110.426 122.61ZM107.63 126.663C107.738 128.5 107.783 130.263 107.783 132.761H115.783C115.783 130.157 115.736 128.229 115.616 126.192L107.63 126.663ZM107.783 132.761V139.322H115.783V132.761H107.783ZM111.782 135.322L109.891 135.322L109.892 143.322L111.783 143.322L111.782 135.322Z" fill="#424B57" mask="url(#path-16-inside-8_146_270)"/>
<path d="M27.7614 188V164.727H43.9886V169.295H33.3864V174.068H43.1591V178.648H33.3864V183.432H43.9886V188H27.7614ZM64.4432 170.545L58.4545 188H52.0909L46.1136 170.545H51.9659L55.1818 182.568H55.3636L58.5909 170.545H64.4432ZM71.0256 188.295C69.9119 188.295 68.9233 188.11 68.0597 187.739C67.2036 187.36 66.5256 186.792 66.0256 186.034C65.5331 185.269 65.2869 184.311 65.2869 183.159C65.2869 182.189 65.4574 181.371 65.7983 180.705C66.1392 180.038 66.6089 179.496 67.2074 179.08C67.8059 178.663 68.4953 178.348 69.2756 178.136C70.0559 177.917 70.8892 177.769 71.7756 177.693C72.768 177.602 73.5672 177.508 74.1733 177.409C74.7794 177.303 75.2188 177.155 75.4915 176.966C75.7718 176.769 75.9119 176.492 75.9119 176.136V176.08C75.9119 175.496 75.7112 175.045 75.3097 174.727C74.9081 174.409 74.3665 174.25 73.6847 174.25C72.9498 174.25 72.3589 174.409 71.9119 174.727C71.465 175.045 71.1809 175.485 71.0597 176.045L65.9347 175.864C66.0862 174.803 66.4763 173.856 67.1051 173.023C67.7415 172.182 68.6127 171.523 69.7188 171.045C70.8324 170.561 72.1695 170.318 73.7301 170.318C74.8438 170.318 75.8703 170.451 76.8097 170.716C77.7491 170.973 78.5672 171.352 79.2642 171.852C79.9612 172.345 80.4991 172.951 80.8778 173.67C81.2642 174.39 81.4574 175.212 81.4574 176.136V188H76.2301V185.568H76.0938C75.7831 186.159 75.3854 186.659 74.9006 187.068C74.4233 187.477 73.8589 187.784 73.2074 187.989C72.5634 188.193 71.8362 188.295 71.0256 188.295ZM72.7415 184.659C73.34 184.659 73.8778 184.538 74.3551 184.295C74.84 184.053 75.2263 183.72 75.5142 183.295C75.8021 182.864 75.946 182.364 75.946 181.795V180.136C75.7869 180.22 75.5938 180.295 75.3665 180.364C75.1468 180.432 74.9044 180.496 74.6392 180.557C74.3741 180.617 74.1013 180.67 73.821 180.716C73.5407 180.761 73.2718 180.803 73.0142 180.841C72.4915 180.924 72.0445 181.053 71.6733 181.227C71.3097 181.402 71.0294 181.629 70.8324 181.909C70.643 182.182 70.5483 182.508 70.5483 182.886C70.5483 183.462 70.7528 183.902 71.1619 184.205C71.5786 184.508 72.1051 184.659 72.7415 184.659ZM90.4119 164.727V188H84.8551V164.727H90.4119ZM105.21 180.466V170.545H110.756V188H105.46V184.75H105.278C104.892 185.818 104.233 186.667 103.301 187.295C102.377 187.917 101.259 188.227 99.9489 188.227C98.7595 188.227 97.714 187.955 96.8125 187.409C95.911 186.864 95.2102 186.102 94.7102 185.125C94.2102 184.14 93.9564 182.989 93.9489 181.67V170.545H99.5057V180.58C99.5133 181.527 99.7633 182.273 100.256 182.818C100.748 183.364 101.419 183.636 102.267 183.636C102.82 183.636 103.316 183.515 103.756 183.273C104.203 183.023 104.555 182.663 104.812 182.193C105.078 181.716 105.21 181.14 105.21 180.466ZM119.213 188.295C118.099 188.295 117.111 188.11 116.247 187.739C115.391 187.36 114.713 186.792 114.213 186.034C113.721 185.269 113.474 184.311 113.474 183.159C113.474 182.189 113.645 181.371 113.986 180.705C114.327 180.038 114.796 179.496 115.395 179.08C115.993 178.663 116.683 178.348 117.463 178.136C118.243 177.917 119.077 177.769 119.963 177.693C120.955 177.602 121.755 177.508 122.361 177.409C122.967 177.303 123.406 177.155 123.679 176.966C123.959 176.769 124.099 176.492 124.099 176.136V176.08C124.099 175.496 123.899 175.045 123.497 174.727C123.096 174.409 122.554 174.25 121.872 174.25C121.137 174.25 120.546 174.409 120.099 174.727C119.652 175.045 119.368 175.485 119.247 176.045L114.122 175.864C114.274 174.803 114.664 173.856 115.293 173.023C115.929 172.182 116.8 171.523 117.906 171.045C119.02 170.561 120.357 170.318 121.918 170.318C123.031 170.318 124.058 170.451 124.997 170.716C125.937 170.973 126.755 171.352 127.452 171.852C128.149 172.345 128.687 172.951 129.065 173.67C129.452 174.39 129.645 175.212 129.645 176.136V188H124.418V185.568H124.281C123.971 186.159 123.573 186.659 123.088 187.068C122.611 187.477 122.046 187.784 121.395 187.989C120.751 188.193 120.024 188.295 119.213 188.295ZM120.929 184.659C121.527 184.659 122.065 184.538 122.543 184.295C123.027 184.053 123.414 183.72 123.702 183.295C123.99 182.864 124.134 182.364 124.134 181.795V180.136C123.974 180.22 123.781 180.295 123.554 180.364C123.334 180.432 123.092 180.496 122.827 180.557C122.562 180.617 122.289 180.67 122.009 180.716C121.728 180.761 121.459 180.803 121.202 180.841C120.679 180.924 120.232 181.053 119.861 181.227C119.497 181.402 119.217 181.629 119.02 181.909C118.83 182.182 118.736 182.508 118.736 182.886C118.736 183.462 118.94 183.902 119.349 184.205C119.766 184.508 120.293 184.659 120.929 184.659ZM142.895 170.545V174.636H131.884V170.545H142.895ZM134.19 166.364H139.747V182.511C139.747 182.852 139.8 183.129 139.906 183.341C140.02 183.545 140.183 183.693 140.395 183.784C140.607 183.867 140.861 183.909 141.156 183.909C141.368 183.909 141.592 183.89 141.827 183.852C142.069 183.807 142.251 183.769 142.372 183.739L143.213 187.75C142.948 187.826 142.573 187.92 142.088 188.034C141.611 188.148 141.039 188.22 140.372 188.25C139.069 188.311 137.952 188.159 137.02 187.795C136.096 187.424 135.387 186.848 134.895 186.068C134.41 185.288 134.175 184.307 134.19 183.125V166.364ZM153.69 188.33C151.857 188.33 150.281 187.955 148.963 187.205C147.652 186.447 146.641 185.394 145.929 184.045C145.224 182.689 144.872 181.117 144.872 179.33C144.872 177.534 145.224 175.962 145.929 174.614C146.641 173.258 147.652 172.205 148.963 171.455C150.281 170.697 151.857 170.318 153.69 170.318C155.524 170.318 157.096 170.697 158.406 171.455C159.724 172.205 160.736 173.258 161.44 174.614C162.152 175.962 162.509 177.534 162.509 179.33C162.509 181.117 162.152 182.689 161.44 184.045C160.736 185.394 159.724 186.447 158.406 187.205C157.096 187.955 155.524 188.33 153.69 188.33ZM153.724 184.136C154.391 184.136 154.955 183.932 155.418 183.523C155.88 183.114 156.232 182.545 156.474 181.818C156.724 181.091 156.849 180.25 156.849 179.295C156.849 178.326 156.724 177.477 156.474 176.75C156.232 176.023 155.88 175.455 155.418 175.045C154.955 174.636 154.391 174.432 153.724 174.432C153.035 174.432 152.452 174.636 151.974 175.045C151.505 175.455 151.145 176.023 150.895 176.75C150.652 177.477 150.531 178.326 150.531 179.295C150.531 180.25 150.652 181.091 150.895 181.818C151.145 182.545 151.505 183.114 151.974 183.523C152.452 183.932 153.035 184.136 153.724 184.136ZM165.355 188V170.545H170.753V173.727H170.935C171.253 172.576 171.772 171.72 172.491 171.159C173.211 170.591 174.048 170.307 175.003 170.307C175.26 170.307 175.526 170.326 175.798 170.364C176.071 170.394 176.325 170.443 176.56 170.511V175.341C176.295 175.25 175.946 175.178 175.514 175.125C175.09 175.072 174.711 175.045 174.378 175.045C173.719 175.045 173.124 175.193 172.594 175.489C172.071 175.777 171.658 176.182 171.355 176.705C171.06 177.22 170.912 177.826 170.912 178.523V188H165.355Z" fill="#FEB913"/>
</svg>
