<svg width="197" height="212" viewBox="0 0 197 212" fill="none" xmlns="http://www.w3.org/2000/svg">
<path d="M27.7614 188V164.727H43.9886V169.295H33.3864V174.068H43.1591V178.648H33.3864V183.432H43.9886V188H27.7614ZM64.4432 170.545L58.4545 188H52.0909L46.1136 170.545H51.9659L55.1818 182.568H55.3636L58.5909 170.545H64.4432ZM71.0256 188.295C69.9119 188.295 68.9233 188.11 68.0597 187.739C67.2036 187.36 66.5256 186.792 66.0256 186.034C65.5331 185.269 65.2869 184.311 65.2869 183.159C65.2869 182.189 65.4574 181.371 65.7983 180.705C66.1392 180.038 66.6089 179.496 67.2074 179.08C67.8059 178.663 68.4953 178.348 69.2756 178.136C70.0559 177.917 70.8892 177.769 71.7756 177.693C72.768 177.602 73.5672 177.508 74.1733 177.409C74.7794 177.303 75.2188 177.155 75.4915 176.966C75.7718 176.769 75.9119 176.492 75.9119 176.136V176.08C75.9119 175.496 75.7112 175.045 75.3097 174.727C74.9081 174.409 74.3665 174.25 73.6847 174.25C72.9498 174.25 72.3589 174.409 71.9119 174.727C71.465 175.045 71.1809 175.485 71.0597 176.045L65.9347 175.864C66.0862 174.803 66.4763 173.856 67.1051 173.023C67.7415 172.182 68.6127 171.523 69.7188 171.045C70.8324 170.561 72.1695 170.318 73.7301 170.318C74.8438 170.318 75.8703 170.451 76.8097 170.716C77.7491 170.973 78.5672 171.352 79.2642 171.852C79.9612 172.345 80.4991 172.951 80.8778 173.67C81.2642 174.39 81.4574 175.212 81.4574 176.136V188H76.2301V185.568H76.0938C75.7831 186.159 75.3854 186.659 74.9006 187.068C74.4233 187.477 73.8589 187.784 73.2074 187.989C72.5634 188.193 71.8362 188.295 71.0256 188.295ZM72.7415 184.659C73.34 184.659 73.8778 184.538 74.3551 184.295C74.84 184.053 75.2263 183.72 75.5142 183.295C75.8021 182.864 75.946 182.364 75.946 181.795V180.136C75.7869 180.22 75.5938 180.295 75.3665 180.364C75.1468 180.432 74.9044 180.496 74.6392 180.557C74.3741 180.617 74.1013 180.67 73.821 180.716C73.5407 180.761 73.2718 180.803 73.0142 180.841C72.4915 180.924 72.0445 181.053 71.6733 181.227C71.3097 181.402 71.0294 181.629 70.8324 181.909C70.643 182.182 70.5483 182.508 70.5483 182.886C70.5483 183.462 70.7528 183.902 71.1619 184.205C71.5786 184.508 72.1051 184.659 72.7415 184.659ZM90.4119 164.727V188H84.8551V164.727H90.4119ZM105.21 180.466V170.545H110.756V188H105.46V184.75H105.278C104.892 185.818 104.233 186.667 103.301 187.295C102.377 187.917 101.259 188.227 99.9489 188.227C98.7595 188.227 97.714 187.955 96.8125 187.409C95.911 186.864 95.2102 186.102 94.7102 185.125C94.2102 184.14 93.9564 182.989 93.9489 181.67V170.545H99.5057V180.58C99.5133 181.527 99.7633 182.273 100.256 182.818C100.748 183.364 101.419 183.636 102.267 183.636C102.82 183.636 103.316 183.515 103.756 183.273C104.203 183.023 104.555 182.663 104.812 182.193C105.078 181.716 105.21 181.14 105.21 180.466ZM119.213 188.295C118.099 188.295 117.111 188.11 116.247 187.739C115.391 187.36 114.713 186.792 114.213 186.034C113.721 185.269 113.474 184.311 113.474 183.159C113.474 182.189 113.645 181.371 113.986 180.705C114.327 180.038 114.796 179.496 115.395 179.08C115.993 178.663 116.683 178.348 117.463 178.136C118.243 177.917 119.077 177.769 119.963 177.693C120.955 177.602 121.755 177.508 122.361 177.409C122.967 177.303 123.406 177.155 123.679 176.966C123.959 176.769 124.099 176.492 124.099 176.136V176.08C124.099 175.496 123.899 175.045 123.497 174.727C123.096 174.409 122.554 174.25 121.872 174.25C121.137 174.25 120.546 174.409 120.099 174.727C119.652 175.045 119.368 175.485 119.247 176.045L114.122 175.864C114.274 174.803 114.664 173.856 115.293 173.023C115.929 172.182 116.8 171.523 117.906 171.045C119.02 170.561 120.357 170.318 121.918 170.318C123.031 170.318 124.058 170.451 124.997 170.716C125.937 170.973 126.755 171.352 127.452 171.852C128.149 172.345 128.687 172.951 129.065 173.67C129.452 174.39 129.645 175.212 129.645 176.136V188H124.418V185.568H124.281C123.971 186.159 123.573 186.659 123.088 187.068C122.611 187.477 122.046 187.784 121.395 187.989C120.751 188.193 120.024 188.295 119.213 188.295ZM120.929 184.659C121.527 184.659 122.065 184.538 122.543 184.295C123.027 184.053 123.414 183.72 123.702 183.295C123.99 182.864 124.134 182.364 124.134 181.795V180.136C123.974 180.22 123.781 180.295 123.554 180.364C123.334 180.432 123.092 180.496 122.827 180.557C122.562 180.617 122.289 180.67 122.009 180.716C121.728 180.761 121.459 180.803 121.202 180.841C120.679 180.924 120.232 181.053 119.861 181.227C119.497 181.402 119.217 181.629 119.02 181.909C118.83 182.182 118.736 182.508 118.736 182.886C118.736 183.462 118.94 183.902 119.349 184.205C119.766 184.508 120.293 184.659 120.929 184.659ZM142.895 170.545V174.636H131.884V170.545H142.895ZM134.19 166.364H139.747V182.511C139.747 182.852 139.8 183.129 139.906 183.341C140.02 183.545 140.183 183.693 140.395 183.784C140.607 183.867 140.861 183.909 141.156 183.909C141.368 183.909 141.592 183.89 141.827 183.852C142.069 183.807 142.251 183.769 142.372 183.739L143.213 187.75C142.948 187.826 142.573 187.92 142.088 188.034C141.611 188.148 141.039 188.22 140.372 188.25C139.069 188.311 137.952 188.159 137.02 187.795C136.096 187.424 135.387 186.848 134.895 186.068C134.41 185.288 134.175 184.307 134.19 183.125V166.364ZM153.69 188.33C151.857 188.33 150.281 187.955 148.963 187.205C147.652 186.447 146.641 185.394 145.929 184.045C145.224 182.689 144.872 181.117 144.872 179.33C144.872 177.534 145.224 175.962 145.929 174.614C146.641 173.258 147.652 172.205 148.963 171.455C150.281 170.697 151.857 170.318 153.69 170.318C155.524 170.318 157.096 170.697 158.406 171.455C159.724 172.205 160.736 173.258 161.44 174.614C162.152 175.962 162.509 177.534 162.509 179.33C162.509 181.117 162.152 182.689 161.44 184.045C160.736 185.394 159.724 186.447 158.406 187.205C157.096 187.955 155.524 188.33 153.69 188.33ZM153.724 184.136C154.391 184.136 154.955 183.932 155.418 183.523C155.88 183.114 156.232 182.545 156.474 181.818C156.724 181.091 156.849 180.25 156.849 179.295C156.849 178.326 156.724 177.477 156.474 176.75C156.232 176.023 155.88 175.455 155.418 175.045C154.955 174.636 154.391 174.432 153.724 174.432C153.035 174.432 152.452 174.636 151.974 175.045C151.505 175.455 151.145 176.023 150.895 176.75C150.652 177.477 150.531 178.326 150.531 179.295C150.531 180.25 150.652 181.091 150.895 181.818C151.145 182.545 151.505 183.114 151.974 183.523C152.452 183.932 153.035 184.136 153.724 184.136ZM165.355 188V170.545H170.753V173.727H170.935C171.253 172.576 171.772 171.72 172.491 171.159C173.211 170.591 174.048 170.307 175.003 170.307C175.26 170.307 175.526 170.326 175.798 170.364C176.071 170.394 176.325 170.443 176.56 170.511V175.341C176.295 175.25 175.946 175.178 175.514 175.125C175.09 175.072 174.711 175.045 174.378 175.045C173.719 175.045 173.124 175.193 172.594 175.489C172.071 175.777 171.658 176.182 171.355 176.705C171.06 177.22 170.912 177.826 170.912 178.523V188H165.355Z" fill="#FEB913"/>
<path d="M144.403 147.684H51.597C49.6136 147.684 48 146.071 48 144.087V26.597C48 24.6136 49.6136 23 51.597 23H144.403C146.386 23 148 24.6136 148 26.597V144.087C148 146.071 146.386 147.684 144.403 147.684ZM51.597 24.4388C50.4071 24.4388 49.4388 25.4069 49.4388 26.597V144.087C49.4388 145.277 50.4071 146.245 51.597 146.245H144.403C145.593 146.245 146.561 145.277 146.561 144.087V26.597C146.561 25.4069 145.593 24.4388 144.403 24.4388H51.597Z" fill="#424B57"/>
<path d="M142.964 113.897H53.0358V115.336H142.964V113.897Z" fill="#424B57"/>
<path d="M74.9792 45.6737H56.2747V47.8319H74.9792V45.6737Z" fill="#424B57"/>
<path d="M91.0459 45.6738H80.015V47.832H91.0459V45.6738Z" fill="#424B57"/>
<path d="M102.556 45.6738H94.6428V47.832H102.556V45.6738Z" fill="#424B57"/>
<path d="M121.021 51.429H56.2747V53.5872H121.021V51.429Z" fill="#424B57"/>
<path d="M139.725 51.429H127.016V53.5872H139.725V51.429Z" fill="#424B57"/>
<path d="M62.2697 57.9037H56.2747V60.0619H62.2697V57.9037Z" fill="#424B57"/>
<path d="M80.015 57.9037H66.3463V60.0619H80.015V57.9037Z" fill="#424B57"/>
<path d="M102.556 57.9037H83.8518V60.0619H102.556V57.9037Z" fill="#424B57"/>
<path d="M139.725 57.9037H108.312V60.0619H139.725V57.9037Z" fill="#424B57"/>
<path d="M79.2956 65.3375H56.2747V67.4957H79.2956V65.3375Z" fill="#424B57"/>
<path d="M114.067 65.3375H83.8518V67.4957H114.067V65.3375Z" fill="#424B57"/>
<path d="M128.455 65.3375H118.623V67.4957H128.455V65.3375Z" fill="#424B57"/>
<path d="M139.726 65.3375H132.052V67.4957H139.726V65.3375Z" fill="#424B57"/>
<path d="M121.021 72.7682H56.2747V74.9265H121.021V72.7682Z" fill="#424B57"/>
<path d="M139.725 72.7682H127.016V74.9265H139.725V72.7682Z" fill="#424B57"/>
<path d="M62.2697 79.2414H56.2747V81.3996H62.2697V79.2414Z" fill="#424B57"/>
<path d="M79.2956 79.2414H65.627V81.3996H79.2956V79.2414Z" fill="#424B57"/>
<path d="M101.837 79.2414H83.1324V81.3996H101.837V79.2414Z" fill="#424B57"/>
<path d="M139.725 79.2414H108.312V81.3996H139.725V79.2414Z" fill="#424B57"/>
<path d="M79.2956 86.6738H56.2747V88.832H79.2956V86.6738Z" fill="#424B57"/>
<path d="M113.347 86.6738H83.1324V88.832H113.347V86.6738Z" fill="#424B57"/>
<path d="M127.735 86.6738H117.904V88.832H127.735V86.6738Z" fill="#424B57"/>
<path d="M139.726 86.6738H132.052V88.832H139.726V86.6738Z" fill="#424B57"/>
<path d="M121.021 93.8818H56.2747V96.04H121.021V93.8818Z" fill="#424B57"/>
<path d="M139.725 93.8818H127.016V96.04H139.725V93.8818Z" fill="#424B57"/>
<path d="M62.2697 100.355H56.2747V102.513H62.2697V100.355Z" fill="#424B57"/>
<path d="M79.2956 100.355H65.627V102.513H79.2956V100.355Z" fill="#424B57"/>
<path d="M101.837 100.355H83.1324V102.513H101.837V100.355Z" fill="#424B57"/>
<path d="M139.725 100.355H108.312V102.513H139.725V100.355Z" fill="#424B57"/>
<path d="M84.4801 125.647H79.8097V123.961H91.1777V125.647H86.4848V139.316H84.4801V125.647Z" fill="#424B57"/>
<path d="M101.793 139.316L99.8339 135.922C99.0138 134.623 98.5353 133.78 98.0569 132.892H98.0116C97.5788 133.803 97.1232 134.6 96.3486 135.944L94.5033 139.316H92.2252L96.9181 131.548L92.4075 123.961H94.6856L96.7359 127.561C97.3054 128.563 97.7383 129.338 98.1711 130.181H98.2164C98.6495 129.247 99.0365 128.563 99.6061 127.561L101.702 123.961H103.98L99.3102 131.434L104.094 139.316H101.793Z" fill="#424B57"/>
<path d="M109.493 125.647H104.823V123.961H116.191V125.647H111.498V139.316H109.493V125.647Z" fill="#424B57"/>
</svg>
