<svg width="20" height="24" viewBox="0 0 20 24" fill="none" xmlns="http://www.w3.org/2000/svg">
<path d="M19.2429 20.7148H1.5V24.0006H19.2429V20.7148Z" fill="#FCB813"/>
<path d="M13.75 1.25V5" stroke="white" stroke-linecap="round" stroke-linejoin="round"/>
<path d="M15.625 3.125H11.875" stroke="white" stroke-linecap="round" stroke-linejoin="round"/>
<path d="M17.5 5.625V8.125" stroke="white" stroke-linecap="round" stroke-linejoin="round"/>
<path d="M18.75 6.875H16.25" stroke="white" stroke-linecap="round" stroke-linejoin="round"/>
<path d="M15.7322 10.6297L13.7237 10.0545C12.8192 9.7989 11.9952 9.315 11.3307 8.64906C10.6662 7.98311 10.1834 7.15741 9.92837 6.25095L9.3544 4.23807C9.32554 4.16765 9.27643 4.10741 9.21333 4.06502C9.15022 4.02263 9.07597 4 9 4C8.92403 4 8.84978 4.02263 8.78667 4.06502C8.72357 4.10741 8.67446 4.16765 8.6456 4.23807L8.07163 6.25095C7.81662 7.15741 7.33377 7.98311 6.66926 8.64906C6.00476 9.315 5.18084 9.7989 4.27634 10.0545L2.26781 10.6297C2.19069 10.6516 2.12281 10.6982 2.07448 10.7623C2.02615 10.8264 2 10.9045 2 10.9848C2 11.0652 2.02615 11.1433 2.07448 11.2074C2.12281 11.2715 2.19069 11.3181 2.26781 11.34L4.27634 11.9152C5.18084 12.1708 6.00476 12.6547 6.66926 13.3206C7.33377 13.9866 7.81662 14.8123 8.07163 15.7187L8.6456 17.7316C8.66749 17.8089 8.71393 17.8769 8.77789 17.9254C8.84185 17.9738 8.91983 18 9 18C9.08017 18 9.15815 17.9738 9.22211 17.9254C9.28607 17.8769 9.33251 17.8089 9.3544 17.7316L9.92837 15.7187C10.1834 14.8123 10.6662 13.9866 11.3307 13.3206C11.9952 12.6547 12.8192 12.1708 13.7237 11.9152L15.7322 11.34C15.8093 11.3181 15.8772 11.2715 15.9255 11.2074C15.9739 11.1433 16 11.0652 16 10.9848C16 10.9045 15.9739 10.8264 15.9255 10.7623C15.8772 10.6982 15.8093 10.6516 15.7322 10.6297Z" fill="#F7F8F9"/>
</svg>
