<?xml version="1.0" standalone="no"?>
<!DOCTYPE svg PUBLIC "-//W3C//DTD SVG 20010904//EN"
 "http://www.w3.org/TR/2001/REC-SVG-20010904/DTD/svg10.dtd">
<svg version="1.0" xmlns="http://www.w3.org/2000/svg"
 width="700.000000pt" height="700.000000pt" viewBox="0 0 700.000000 700.000000"
 preserveAspectRatio="xMidYMid meet">
<metadata>
Created by potrace 1.14, written by Peter Selinger 2001-2017
</metadata>
<g transform="translate(0.000000,700.000000) scale(0.100000,-0.100000)"
fill="#000000" stroke="none">
<path d="M1685 6237 c-87 -150 -169 -292 -183 -317 -14 -25 -35 -61 -47 -80
-12 -19 -34 -58 -49 -85 -15 -28 -36 -66 -47 -85 -12 -19 -73 -125 -137 -235
-63 -110 -130 -225 -148 -255 -37 -62 -37 -62 36 -103 25 -13 86 -48 135 -77
50 -29 106 -61 125 -72 19 -11 49 -28 66 -39 l30 -18 60 104 c68 119 57 116
172 49 40 -24 76 -44 78 -44 3 0 17 -8 32 -19 26 -18 238 -141 337 -196 28
-16 163 -93 300 -173 138 -80 294 -171 348 -201 l99 -56 -34 -8 c-62 -15 -139
-60 -172 -101 -54 -66 -69 -105 -74 -188 -4 -70 -2 -82 27 -140 17 -35 36 -70
42 -79 10 -13 1 -36 -53 -131 -36 -62 -75 -129 -85 -148 -11 -19 -165 -288
-341 -597 -177 -309 -323 -568 -324 -574 -4 -19 100 -18 116 1 10 11 346 583
456 775 58 102 228 392 251 430 10 17 22 37 26 45 5 11 53 93 68 118 1 1 15
-2 31 -8 l29 -10 -1 -673 c0 -369 3 -677 8 -683 6 -9 53 -11 109 -5 4 1 6 304
6 675 0 370 3 679 7 685 4 6 16 11 26 11 17 0 32 -19 78 -100 11 -19 149 -253
307 -520 158 -267 319 -539 358 -605 39 -66 76 -126 83 -134 12 -13 124 -23
124 -11 0 3 -84 150 -186 326 -103 175 -195 335 -206 354 -11 19 -92 159 -181
310 -88 151 -167 289 -177 305 -9 17 -32 56 -49 87 l-33 58 28 32 c27 32 51
82 61 122 8 38 4 131 -7 160 -6 16 -9 31 -6 33 3 3 93 -44 146 -77 8 -5 40
-24 70 -41 30 -18 98 -57 150 -87 52 -30 113 -65 135 -77 22 -13 154 -89 292
-169 139 -80 257 -146 263 -146 5 0 19 17 29 38 36 68 36 67 67 45 16 -11 79
-49 139 -83 61 -34 124 -70 140 -80 17 -10 70 -41 118 -69 49 -28 94 -51 100
-51 7 0 28 28 47 62 19 33 43 75 52 91 30 52 31 52 135 -8 54 -32 100 -60 103
-62 2 -2 -4 -19 -14 -36 -89 -153 -107 -187 -98 -187 5 0 53 -25 106 -56 56
-33 101 -53 106 -48 13 14 412 707 417 725 3 12 -23 32 -94 72 -55 32 -102 57
-106 57 -6 0 -107 -168 -107 -179 0 -4 -5 -12 -11 -18 -10 -10 -26 -2 -207
104 -11 6 -5 23 24 73 20 36 48 84 61 107 13 23 20 43 16 46 -185 109 -515
297 -522 297 -6 0 5 26 24 57 19 31 33 58 32 59 -1 1 -110 63 -242 139 -132
76 -394 228 -583 337 -189 109 -345 198 -348 198 -3 0 -17 9 -32 19 -15 10
-133 80 -262 154 -129 74 -251 144 -270 155 -19 12 -46 27 -60 35 -22 12 -182
104 -575 332 -133 77 -159 92 -232 132 -35 19 -63 38 -63 42 0 4 25 49 55 100
30 51 55 99 55 106 0 11 -103 74 -290 178 -30 17 -71 41 -92 53 l-36 23 -157
-272z"/>
<path d="M1108 1642 c-71 -6 -68 16 -68 -582 0 -311 5 -541 10 -550 8 -13 286
-15 2407 -15 2671 0 2446 -6 2483 70 18 38 19 66 20 528 0 268 -2 498 -6 512
-4 16 -16 28 -33 32 -25 6 -4736 11 -4813 5z"/>
</g>
</svg>
